<svg width="20" height="20" viewBox="0 0 20 20" fill="none" xmlns="http://www.w3.org/2000/svg">
<g clip-path="url(#clip0_341_1336)">
<path d="M6.8128 19.175C6.17844 19.1406 5.58149 18.864 5.14519 18.4022C4.62321 17.9 4.15741 17.3426 3.75602 16.7396C3.129 15.8418 2.63337 14.859 2.28412 13.8211C1.88886 12.7044 1.68093 11.5301 1.66873 10.3456C1.63802 9.18339 1.92584 8.0349 2.50102 7.02451C2.92228 6.29623 3.52316 5.68806 4.24631 5.25804C4.96146 4.82985 5.77754 4.59937 6.61103 4.59019C7.23935 4.62736 7.8568 4.77097 8.43703 5.01491C8.90008 5.21869 9.38634 5.36195 9.88572 5.44064C10.4366 5.32524 10.9748 5.1563 11.4928 4.93622C12.1058 4.69685 12.7549 4.56281 13.4126 4.53974C13.5004 4.53974 13.5871 4.53974 13.6709 4.54983C15.1135 4.5912 16.4553 5.2994 17.3027 6.46663C16.6413 6.82036 16.091 7.35056 15.7129 7.9983C15.3348 8.64605 15.1437 9.38595 15.1609 10.1358C15.1543 10.7091 15.2693 11.2774 15.4984 11.8031C15.7274 12.3287 16.0652 12.7999 16.4896 13.1855C16.876 13.5537 17.3259 13.8483 17.8172 14.0561C17.7163 14.3588 17.6003 14.6513 17.4772 14.9459C17.1978 15.5969 16.853 16.2178 16.4482 16.7992C16.0655 17.3815 15.6199 17.9201 15.1196 18.4052C14.6632 18.8581 14.0549 19.1252 13.4126 19.1548C12.8682 19.1307 12.3334 19.003 11.8368 18.7785C11.3013 18.5452 10.7259 18.4175 10.142 18.4022C9.5416 18.414 8.9491 18.5411 8.39667 18.7765C7.91954 18.9918 7.40978 19.1258 6.88846 19.173L6.8128 19.175V19.175ZM9.99064 4.53974C9.91498 4.53974 9.83931 4.53974 9.76365 4.53066C9.74774 4.41058 9.73931 4.28962 9.73843 4.16849C9.77143 3.1608 10.1652 2.19847 10.8482 1.45673C11.2301 1.03045 11.6931 0.684429 12.2101 0.438814C12.6919 0.190796 13.2184 0.0415907 13.7587 -3.05176e-05C13.7738 0.132127 13.7738 0.261259 13.7738 0.384337C13.7596 1.37619 13.3869 2.3294 12.7246 3.06785C12.4039 3.49784 11.993 3.85242 11.5207 4.10669C11.0484 4.36097 10.5261 4.50878 9.99064 4.53974V4.53974Z" fill="#222222"/>
</g>
<defs>
<clipPath id="clip0_341_1336">
<rect width="20" height="20" fill="white"/>
</clipPath>
</defs>
</svg>
