<svg width="24" height="24" viewBox="0 0 24 24" fill="none" xmlns="http://www.w3.org/2000/svg">



<defs>
<clipPath id="clip0_414_4805">
<rect width="24" height="24" fill="white"/>
</clipPath>
</defs>
<g clip-path="url(#clip0_414_4805)">
<path d="M22.3001 2.34422C22.3001 1.07812 21.2181 0 19.958 0H4.0278C2.54205 0 1.33328 1.22236 1.33328 2.69367V24L4.08574 21.8532L6.11284 23.4255L8.15088 21.8532L10.1841 23.4247L12.2235 21.8532L14.2548 23.425L16.2935 21.8532L19.0364 24V7.64297H22.3001V2.34422ZM17.6163 21.0919L16.295 20.0699L14.2564 21.6415L12.2254 20.0699L10.1855 21.6419L8.15181 20.0699L6.11528 21.6411L4.08963 20.0699L2.75336 21.0973V2.69367C2.75336 1.99772 3.3251 1.43156 4.02785 1.43156H17.8053C17.6435 1.80305 17.6163 2.18681 17.6163 2.58497V21.0919ZM20.8801 6.23672H19.0364V2.34422C19.0364 1.84102 19.4498 1.43156 19.958 1.43156C20.456 1.43156 20.8801 1.84364 20.8801 2.34422V6.23672Z" fill="white"/>
<path d="M6.55707 3.47192H13.825V4.87817H6.55707V3.47192Z" fill="white"/>
<path d="M4.61975 7.63721H11.4208V9.04346H4.61975V7.63721Z" fill="white"/>
<path d="M13.0875 7.63721H15.9074V9.04346H13.0875V7.63721Z" fill="white"/>
<path d="M4.61975 11.8015H11.4208V13.2078H4.61975V11.8015Z" fill="white"/>
<path d="M13.0875 11.8015H15.9074V13.2078H13.0875V11.8015Z" fill="white"/>
<path d="M4.47473 15.9666H11.2757V17.3728H4.47473V15.9666Z" fill="white"/>
<path d="M12.9424 15.9666H15.7624V17.3728H12.9424V15.9666Z" fill="white"/>
</g>
</svg>
