<svg width="16" height="16" viewBox="0 0 16 16" fill="none" xmlns="http://www.w3.org/2000/svg">
<path d="M15.5 2.82349H0.5C0.25 2.82349 0 3.04571 0 3.37904C0 6.71238 1.45 9.49015 4 11.0457V12.2679C4 12.6013 4.2 12.8235 4.5 12.8235H11.5C11.8 12.8235 12 12.6013 12 12.2679V10.9902C14.55 9.4346 16 6.71238 16 3.37904C16 3.04571 15.75 2.82349 15.5 2.82349ZM11.25 10.1568C11.1 10.2679 11 10.4346 11 10.6568V11.7124H5V10.7124C5 10.4902 4.9 10.3235 4.7 10.2124C2.5 8.99015 1.2 6.83333 1.05 4H8.025H15C14.8 6.77778 13.5 8.9346 11.25 10.1568Z" fill="#9F9F9F"/>
</svg>
