<svg width="18" height="17" viewBox="0 0 18 17" fill="none" xmlns="http://www.w3.org/2000/svg">
<path d="M6.1664 5.42839C5.76258 6.00428 4.93601 6.80029 4.93601 7.45063C4.93601 8.23295 5.76963 9.80831 6.85228 10.8776C7.93492 11.9469 8.85085 12.5498 9.64293 12.5498C10.1822 12.5498 10.4532 11.2492 11.8935 11.2492C12.9738 11.2492 14.3499 12.4259 14.7421 13.7265C14.9425 14.3912 14.2647 14.9982 13.4157 15.4542C12.453 15.9712 11.3328 16.1386 10.2501 15.9908C8.71688 15.7815 6.62709 15.0809 4.15153 12.7356C1.09084 9.41185 0.936311 7.23441 1.01358 5.10804C1.09084 2.98167 2.9748 1.95923 3.61147 1.95923C4.19002 1.95923 5.97807 3.49345 6.29974 4.74216C6.3608 4.9792 6.30693 5.22797 6.1664 5.42839Z" stroke="#9F9F9F" stroke-width="1.3" stroke-linecap="round" stroke-linejoin="round"/>
<path d="M9.64297 4.3165C9.64297 4.3165 11.0293 4.12595 12.225 5.3217C13.4208 6.51744 13.2302 7.90374 13.2302 7.90374" stroke="#9F9F9F" stroke-width="1.3" stroke-linecap="round"/>
<path d="M9.64283 1.1787C9.64283 1.1787 11.868 1.04645 13.9575 3.13598C16.0471 5.22552 15.9114 7.4473 15.9114 7.4473" stroke="#9F9F9F" stroke-width="1.3" stroke-linecap="round"/>
</svg>
