<svg width="24" height="24" viewBox="0 0 24 24" fill="none" xmlns="http://www.w3.org/2000/svg">
<path d="M2 8C2 6.89543 2.89543 6 4 6H20C21.1046 6 22 6.89543 22 8V10.0131C22 10.5578 21.7403 11.0698 21.3008 11.3915V11.3915C20.1924 12.2028 18.8076 12.2028 17.6992 11.3915V11.3915C17.2829 11.0868 16.7171 11.0868 16.3008 11.3915V11.3915C15.1924 12.2028 13.8077 12.2028 12.6993 11.3915V11.3915C12.2829 11.0868 11.7171 11.0868 11.3007 11.3915V11.3915C10.1923 12.2028 8.80765 12.2028 7.69925 11.3915V11.3915C7.28289 11.0868 6.71711 11.0868 6.30075 11.3915V11.3915C5.19235 12.2028 3.80765 12.2028 2.69927 11.3915V11.3915C2.25975 11.0698 2 10.5578 2 10.0131V8Z" stroke="#222222" stroke-width="1.3" stroke-linecap="round" stroke-linejoin="round"/>
<path d="M4 12.2222V20C4 21.1046 4.89543 22 6 22H18C19.1046 22 20 21.1046 20 20V12" stroke="#222222" stroke-width="1.3" stroke-linecap="round" stroke-linejoin="round"/>
<path d="M4 5.9111V4C4 2.89543 4.89543 2 6 2H18C19.1046 2 20 2.89543 20 4V6" stroke="#222222" stroke-width="1.3" stroke-linecap="round" stroke-linejoin="round"/>
<path d="M13.5 16H10.5C9.94772 16 9.5 16.4477 9.5 17V21C9.5 21.5523 9.94772 22 10.5 22H13.5C14.0523 22 14.5 21.5523 14.5 21V17C14.5 16.4477 14.0523 16 13.5 16Z" stroke="#222222" stroke-width="1.3" stroke-linecap="round" stroke-linejoin="round"/>
</svg>
