<svg width="12" height="12" viewBox="0 0 12 12" fill="none" xmlns="http://www.w3.org/2000/svg">
<path d="M6.33669 11.3993C6.24719 11.3993 6.16135 11.3637 6.09807 11.3005C6.03478 11.2372 5.99922 11.1513 5.99922 11.0618V5.99975H0.93714C0.860385 5.99965 0.785957 5.97339 0.726134 5.9253C0.666312 5.87721 0.62467 5.81016 0.608077 5.73523C0.591485 5.66029 0.600935 5.58193 0.634867 5.51308C0.668799 5.44423 0.725187 5.38901 0.794726 5.35652L10.9189 0.631913C10.9817 0.60245 11.0521 0.593065 11.1204 0.605038C11.1888 0.61701 11.2518 0.649757 11.3008 0.698819C11.3499 0.747881 11.3826 0.810873 11.3946 0.879217C11.4066 0.94756 11.3972 1.01793 11.3677 1.08075L6.64312 11.2049C6.61601 11.2632 6.57283 11.3125 6.51867 11.347C6.46451 11.3816 6.40161 11.3999 6.33737 11.4L6.33669 11.3993ZM2.45846 5.3248H6.33669C6.4262 5.3248 6.51204 5.36036 6.57532 5.42364C6.63861 5.48693 6.67417 5.57277 6.67417 5.66227V9.5405L10.3627 1.63556L2.45779 5.32413L2.45846 5.3248Z" fill="white"/>
</svg>
