<svg width="17" height="18" viewBox="0 0 17 18" fill="none" xmlns="http://www.w3.org/2000/svg">
<path d="M10.756 1.9691C11.1698 1.47658 11.8425 1.36242 12.3424 1.67161C12.7729 1.93793 13.2011 2.22661 13.5094 2.48565C13.81 2.73825 14.1514 3.09274 14.4716 3.45385C14.8561 3.88754 14.8586 4.56256 14.4468 5.05263L6.8005 14.153C6.45194 14.5678 5.97864 14.8439 5.46152 14.9268C4.88534 15.0192 4.17657 15.1196 3.58075 15.1656C3.28077 15.1888 3.02847 15.1966 2.84372 15.1868C2.82578 15.1858 2.80913 15.1847 2.79373 15.1835C2.78991 15.1686 2.78596 15.1524 2.78193 15.1349C2.74039 14.9546 2.7046 14.7047 2.67573 14.4052C2.6184 13.8104 2.59517 13.0949 2.58684 12.5114C2.57936 11.9878 2.76979 11.474 3.11834 11.0591L10.756 1.9691ZM2.64667 15.162C2.64681 15.1619 2.64943 15.1626 2.65411 15.1643C2.64887 15.163 2.64653 15.1621 2.64667 15.162ZM2.83672 15.3178C2.83921 15.3221 2.84034 15.3246 2.84028 15.3247C2.84021 15.3248 2.83897 15.3227 2.83672 15.3178Z" stroke="#9F9F9F" stroke-width="1.3"/>
<path d="M9.77051 3.50635C9.77051 3.50635 10.694 4.8324 11.5 5.36304C12.306 5.8937 13.3093 6.47702 13.3093 6.47702" stroke="#9F9F9F" stroke-width="1.3" stroke-linecap="round"/>
</svg>
