<svg width="75" height="62" viewBox="0 0 75 62" fill="none" xmlns="http://www.w3.org/2000/svg">
<g clip-path="url(#clip0_529_2976)">
<path d="M56.0192 0.6875C51.4393 0.6875 46.9726 2.43387 43.4417 5.60503C43.2814 5.74884 43.1542 5.92517 43.0676 6.12231C43.0272 6.21423 42.9871 6.28997 42.9449 6.35399L38.0082 13.8101C37.6736 14.3155 37.6736 14.972 38.0082 15.4775L42.9449 22.9338C43.2804 23.4403 43.2804 24.0948 42.9451 24.6012L38.0082 32.0579C37.6736 32.5633 37.6736 33.2198 38.0082 33.7253L42.9449 41.1817C43.2804 41.6883 43.2804 42.3427 42.9449 42.849L38.0079 50.3068C37.6735 50.8122 37.6735 51.4687 38.008 51.9743L42.3771 58.574C42.6664 59.0111 43.1464 59.2506 43.6377 59.2506C43.8932 59.2506 44.1521 59.1857 44.3887 59.0498C49.6188 56.046 57.2064 51.172 63.6531 45.0096C71.7239 37.2942 75.8163 29.6445 75.8163 22.2725C75.8163 10.3705 66.9354 0.6875 56.0192 0.6875ZM44.1083 55.7171L41.0783 51.1401L45.4634 44.516C46.4693 42.9967 46.4692 41.0333 45.4632 39.514L41.0785 32.8912L45.4634 26.2684C46.4693 24.7489 46.4693 22.7856 45.4632 21.2662L41.0785 14.6436L45.463 8.0216C45.5394 7.9064 45.6104 7.78659 45.6773 7.66012C48.6174 5.109 52.2783 3.70777 56.0194 3.70777C65.27 3.70791 72.796 12.0361 72.796 22.2725C72.7958 36.9377 53.6387 50.0861 44.1083 55.7171Z" fill="#9F9F9F"/>
<path d="M32.5694 51.9735C32.2341 51.4671 32.2341 50.8126 32.5694 50.3062L37.5063 42.8485C37.8407 42.3431 37.8407 41.6868 37.5061 41.1812L32.5694 33.7247C32.2339 33.2181 32.2339 32.5637 32.5692 32.0572L37.5061 24.6006C37.8407 24.0951 37.8407 23.4387 37.5061 22.9331L32.5694 15.4768C32.2339 14.9703 32.2339 14.3159 32.5694 13.8094L35.0053 10.1304C35.3622 9.59144 35.3363 8.88497 34.9412 8.37347C31.1674 3.48861 25.6475 0.687012 19.797 0.687012C8.88087 0.687301 0 10.3703 0 22.2723C0 30.6385 5.22798 39.3087 15.5388 48.0411C23.4243 54.7197 31.9466 59.4281 35.2445 61.1427C35.4654 61.2575 35.704 61.313 35.9404 61.313C36.3584 61.313 36.7698 61.1397 37.0637 60.8127C37.5242 60.3011 37.5804 59.543 37.2005 58.969L32.5694 51.9735ZM17.4907 45.7362C7.8888 37.6041 3.02041 29.7096 3.02041 22.2723C3.02041 12.0359 10.5463 3.70772 19.797 3.70772C24.3677 3.70772 28.7136 5.76656 31.8719 9.39242L30.0511 12.1423C29.0449 13.6619 29.0449 15.6252 30.0511 17.1446L34.4359 23.7672L30.0509 30.3901C29.045 31.9095 29.045 33.8728 30.0511 35.3923L34.4359 42.0151L30.0508 48.6392C29.0451 50.1585 29.0451 52.1216 30.0508 53.6408C30.0508 53.6408 30.0508 53.6408 30.0508 53.6409L31.2468 55.4473C27.3553 53.1277 22.2977 49.8073 17.4907 45.7362Z" fill="#9F9F9F"/>
</g>
<defs>
<clipPath id="clip0_529_2976">
<rect width="75" height="62" fill="white"/>
</clipPath>
</defs>
</svg>
