<svg width="15" height="16" viewBox="0 0 15 16" fill="none" xmlns="http://www.w3.org/2000/svg">
<path d="M4.94482 7.72217L13.2782 7.72217" stroke="#9F9F9F" stroke-width="1.3" stroke-linecap="round"/>
<line x1="13.7478" y1="7.72217" x2="11.3337" y2="5.30807" stroke="#9F9F9F" stroke-width="1.3" stroke-linecap="round"/>
<line x1="0.65" y1="-0.65" x2="4.06404" y2="-0.65" transform="matrix(-0.707106 0.707107 0.707107 0.707107 14.667 7.72217)" stroke="#9F9F9F" stroke-width="1.3" stroke-linecap="round"/>
<path d="M7.5835 1.42832C7.94248 1.42832 8.2335 1.13731 8.2335 0.778321C8.2335 0.419336 7.94248 0.128321 7.5835 0.128321L7.5835 1.42832ZM7.58349 15.3172C7.94248 15.3172 8.23349 15.0262 8.23349 14.6672C8.23349 14.3082 7.94248 14.0172 7.58349 14.0172L7.58349 15.3172ZM1.41478 10.4346L2.06324 10.39L1.41478 10.4346ZM7.58349 14.0172C7.58254 14.0172 7.58158 14.0172 7.58062 14.0172C7.57966 14.0172 7.5787 14.0172 7.57774 14.0172C7.57678 14.0172 7.57582 14.0172 7.57486 14.0172C7.5739 14.0172 7.57294 14.0172 7.57198 14.0172C7.57102 14.0172 7.57006 14.0172 7.56911 14.0172C7.56815 14.0172 7.56719 14.0172 7.56623 14.0172C7.56527 14.0172 7.56431 14.0172 7.56335 14.0172C7.56239 14.0172 7.56143 14.0172 7.56047 14.0172C7.55952 14.0172 7.55856 14.0172 7.5576 14.0172C7.55664 14.0172 7.55568 14.0172 7.55472 14.0172C7.55376 14.0172 7.5528 14.0172 7.55185 14.0172C7.55089 14.0172 7.54993 14.0172 7.54897 14.0172C7.54801 14.0172 7.54705 14.0172 7.54609 14.0172C7.54514 14.0172 7.54418 14.0172 7.54322 14.0172C7.54226 14.0172 7.5413 14.0172 7.54034 14.0172C7.53939 14.0172 7.53843 14.0172 7.53747 14.0172C7.53651 14.0172 7.53555 14.0172 7.53459 14.0172C7.53364 14.0172 7.53268 14.0172 7.53172 14.0172C7.53076 14.0172 7.5298 14.0172 7.52885 14.0172C7.52789 14.0172 7.52693 14.0172 7.52597 14.0172C7.52501 14.0172 7.52406 14.0172 7.5231 14.0172C7.52214 14.0172 7.52118 14.0172 7.52023 14.0172C7.51927 14.0172 7.51831 14.0172 7.51735 14.0172C7.51639 14.0172 7.51544 14.0172 7.51448 14.0172C7.51352 14.0172 7.51256 14.0172 7.51161 14.0172C7.51065 14.0172 7.50969 14.0172 7.50873 14.0172C7.50778 14.0172 7.50682 14.0172 7.50586 14.0172C7.5049 14.0172 7.50395 14.0172 7.50299 14.0172C7.50203 14.0172 7.50108 14.0172 7.50012 14.0172C7.49916 14.0172 7.4982 14.0172 7.49725 14.0172C7.49629 14.0172 7.49533 14.0172 7.49438 14.0172C7.49342 14.0172 7.49246 14.0172 7.4915 14.0172C7.49055 14.0172 7.48959 14.0172 7.48863 14.0172C7.48768 14.0172 7.48672 14.0172 7.48576 14.0172C7.48481 14.0172 7.48385 14.0172 7.48289 14.0172C7.48194 14.0172 7.48098 14.0172 7.48002 14.0172C7.47907 14.0172 7.47811 14.0172 7.47715 14.0172C7.4762 14.0172 7.47524 14.0172 7.47428 14.0172C7.47333 14.0172 7.47237 14.0172 7.47141 14.0172C7.47046 14.0172 7.4695 14.0172 7.46854 14.0172C7.46759 14.0172 7.46663 14.0172 7.46568 14.0172C7.46472 14.0172 7.46376 14.0172 7.46281 14.0172C7.46185 14.0172 7.46089 14.0172 7.45994 14.0172C7.45898 14.0172 7.45803 14.0172 7.45707 14.0172C7.45611 14.0172 7.45516 14.0172 7.4542 14.0172C7.45325 14.0172 7.45229 14.0172 7.45134 14.0172C7.45038 14.0172 7.44942 14.0172 7.44847 14.0172C7.44751 14.0172 7.44656 14.0172 7.4456 14.0172C7.44464 14.0172 7.44369 14.0172 7.44273 14.0172C7.44178 14.0172 7.44082 14.0172 7.43987 14.0172C7.43891 14.0172 7.43796 14.0172 7.437 14.0172C7.43605 14.0172 7.43509 14.0172 7.43413 14.0172C7.43318 14.0172 7.43222 14.0172 7.43127 14.0172C7.43031 14.0172 7.42936 14.0172 7.4284 14.0172C7.42745 14.0172 7.42649 14.0172 7.42554 14.0172C7.42458 14.0172 7.42363 14.0172 7.42267 14.0172C7.42172 14.0172 7.42076 14.0172 7.41981 14.0172C7.41885 14.0172 7.4179 14.0172 7.41694 14.0172C7.41599 14.0172 7.41503 14.0172 7.41408 14.0172C7.41312 14.0172 7.41217 14.0172 7.41121 14.0172C7.41026 14.0172 7.40931 14.0172 7.40835 14.0172C7.4074 14.0172 7.40644 14.0172 7.40549 14.0172C7.40453 14.0172 7.40358 14.0172 7.40262 14.0172C7.40167 14.0172 7.40071 14.0172 7.39976 14.0172C7.39881 14.0172 7.39785 14.0172 7.3969 14.0172C7.39594 14.0172 7.39499 14.0172 7.39404 14.0172C7.39308 14.0172 7.39213 14.0172 7.39117 14.0172C7.39022 14.0172 7.38926 14.0172 7.38831 14.0172C7.38736 14.0172 7.3864 14.0172 7.38545 14.0172C7.3845 14.0172 7.38354 14.0172 7.38259 14.0172C7.38163 14.0172 7.38068 14.0172 7.37973 14.0172C7.37877 14.0172 7.37782 14.0172 7.37687 14.0172C7.37591 14.0172 7.37496 14.0172 7.374 14.0172C7.37305 14.0172 7.3721 14.0172 7.37114 14.0172C7.37019 14.0172 7.36924 14.0172 7.36828 14.0172C7.36733 14.0172 7.36638 14.0172 7.36542 14.0172C7.36447 14.0172 7.36352 14.0172 7.36256 14.0172C7.36161 14.0172 7.36066 14.0172 7.3597 14.0172C7.35875 14.0172 7.3578 14.0172 7.35685 14.0172C7.35589 14.0172 7.35494 14.0172 7.35399 14.0172C7.35303 14.0172 7.35208 14.0172 7.35113 14.0172C7.35017 14.0172 7.34922 14.0172 7.34827 14.0172C7.34732 14.0172 7.34636 14.0172 7.34541 14.0172C7.34446 14.0172 7.34351 14.0172 7.34255 14.0172C7.3416 14.0172 7.34065 14.0172 7.3397 14.0172C7.33874 14.0172 7.33779 14.0172 7.33684 14.0172C7.33589 14.0172 7.33493 14.0172 7.33398 14.0172C7.33303 14.0172 7.33208 14.0172 7.33112 14.0172C7.33017 14.0172 7.32922 14.0172 7.32827 14.0172C7.32732 14.0172 7.32636 14.0172 7.32541 14.0172C7.32446 14.0172 7.32351 14.0172 7.32255 14.0172C7.3216 14.0172 7.32065 14.0172 7.3197 14.0172C7.31875 14.0172 7.3178 14.0172 7.31684 14.0172C7.31589 14.0172 7.31494 14.0172 7.31399 14.0172C7.31304 14.0172 7.31208 14.0172 7.31113 14.0172C7.31018 14.0172 7.30923 14.0172 7.30828 14.0172C7.30733 14.0172 7.30638 14.0172 7.30542 14.0172C7.30447 14.0172 7.30352 14.0172 7.30257 14.0172C7.30162 14.0172 7.30067 14.0172 7.29972 14.0172C7.29876 14.0172 7.29781 14.0172 7.29686 14.0172C7.29591 14.0172 7.29496 14.0172 7.29401 14.0172C7.29306 14.0172 7.29211 14.0172 7.29116 14.0172C7.29021 14.0172 7.28925 14.0172 7.2883 14.0172C7.28735 14.0172 7.2864 14.0172 7.28545 14.0172C7.2845 14.0172 7.28355 14.0172 7.2826 14.0172C7.28165 14.0172 7.2807 14.0172 7.27975 14.0172C7.2788 14.0172 7.27785 14.0172 7.27689 14.0172C7.27594 14.0172 7.27499 14.0172 7.27404 14.0172C7.27309 14.0172 7.27214 14.0172 7.27119 14.0172C7.27024 14.0172 7.26929 14.0172 7.26834 14.0172C7.26739 14.0172 7.26644 14.0172 7.26549 14.0172C7.26454 14.0172 7.26359 14.0172 7.26264 14.0172C7.26169 14.0172 7.26074 14.0172 7.25979 14.0172C7.25884 14.0172 7.25789 14.0172 7.25694 14.0172C7.25599 14.0172 7.25504 14.0172 7.25409 14.0172C7.25314 14.0172 7.25219 14.0172 7.25124 14.0172C7.25029 14.0172 7.24934 14.0172 7.24839 14.0172C7.24744 14.0172 7.24649 14.0172 7.24554 14.0172C7.24459 14.0172 7.24364 14.0172 7.2427 14.0172C7.24175 14.0172 7.2408 14.0172 7.23985 14.0172C7.2389 14.0172 7.23795 14.0172 7.237 14.0172C7.23605 14.0172 7.2351 14.0172 7.23415 14.0172C7.2332 14.0172 7.23225 14.0172 7.2313 14.0172C7.23036 14.0172 7.22941 14.0172 7.22846 14.0172C7.22751 14.0172 7.22656 14.0172 7.22561 14.0172C7.22466 14.0172 7.22371 14.0172 7.22276 14.0172C7.22182 14.0172 7.22087 14.0172 7.21992 14.0172C7.21897 14.0172 7.21802 14.0172 7.21707 14.0172C7.21612 14.0172 7.21518 14.0172 7.21423 14.0172C7.21328 14.0172 7.21233 14.0172 7.21138 14.0172C7.21043 14.0172 7.20948 14.0172 7.20854 14.0172C7.20759 14.0172 7.20664 14.0172 7.20569 14.0172C7.20474 14.0172 7.2038 14.0172 7.20285 14.0172C7.2019 14.0172 7.20095 14.0172 7.2 14.0172C7.19905 14.0172 7.19811 14.0172 7.19716 14.0172C7.19621 14.0172 7.19526 14.0172 7.19432 14.0172C7.19337 14.0172 7.19242 14.0172 7.19147 14.0172C7.19052 14.0172 7.18958 14.0172 7.18863 14.0172C7.18768 14.0172 7.18673 14.0172 7.18579 14.0172C7.18484 14.0172 7.18389 14.0172 7.18294 14.0172C7.182 14.0172 7.18105 14.0172 7.1801 14.0172C7.17915 14.0172 7.17821 14.0172 7.17726 14.0172C7.17631 14.0172 7.17537 14.0172 7.17442 14.0172C7.17347 14.0172 7.17252 14.0172 7.17158 14.0172C7.17063 14.0172 7.16968 14.0172 7.16874 14.0172C7.16779 14.0172 7.16684 14.0172 7.16589 14.0172C7.16495 14.0172 7.164 14.0172 7.16305 14.0172C7.16211 14.0172 7.16116 14.0172 7.16021 14.0172C7.15927 14.0172 7.15832 14.0172 7.15737 14.0172C7.15643 14.0172 7.15548 14.0172 7.15453 14.0172C7.15359 14.0172 7.15264 14.0172 7.1517 14.0172C7.15075 14.0172 7.1498 14.0172 7.14886 14.0172C7.14791 14.0172 7.14696 14.0172 7.14602 14.0172C7.14507 14.0172 7.14413 14.0172 7.14318 14.0172C7.14223 14.0172 7.14129 14.0172 7.14034 14.0172C7.1394 14.0172 7.13845 14.0172 7.1375 14.0172C7.13656 14.0172 7.13561 14.0172 7.13467 14.0172C7.13372 14.0172 7.13277 14.0172 7.13183 14.0172C7.13088 14.0172 7.12994 14.0172 7.12899 14.0172C7.12805 14.0172 7.1271 14.0172 7.12616 14.0172C7.12521 14.0172 7.12426 14.0172 7.12332 14.0172C7.12237 14.0172 7.12143 14.0172 7.12048 14.0172C7.11954 14.0172 7.11859 14.0172 7.11765 14.0172C7.1167 14.0172 7.11576 14.0172 7.11481 14.0172C7.11387 14.0172 7.11292 14.0172 7.11198 14.0172C7.11103 14.0172 7.11009 14.0172 7.10914 14.0172C7.1082 14.0172 7.10725 14.0172 7.10631 14.0172C7.10536 14.0172 7.10442 14.0172 7.10347 14.0172C7.10253 14.0172 7.10158 14.0172 7.10064 14.0172C7.09969 14.0172 7.09875 14.0172 7.09781 14.0172C7.09686 14.0172 7.09592 14.0172 7.09497 14.0172C7.09403 14.0172 7.09308 14.0172 7.09214 14.0172C7.09119 14.0172 7.09025 14.0172 7.08931 14.0172C7.08836 14.0172 7.08742 14.0172 7.08647 14.0172C7.08553 14.0172 7.08459 14.0172 7.08364 14.0172C7.0827 14.0172 7.08175 14.0172 7.08081 14.0172C7.07987 14.0172 7.07892 14.0172 7.07798 14.0172C7.07703 14.0172 7.07609 14.0172 7.07515 14.0172C7.0742 14.0172 7.07326 14.0172 7.07232 14.0172C7.07137 14.0172 7.07043 14.0172 7.06949 14.0172C7.06854 14.0172 7.0676 14.0172 7.06666 14.0172C7.06571 14.0172 7.06477 14.0172 7.06383 14.0172C7.06288 14.0172 7.06194 14.0172 7.061 14.0172C7.06005 14.0172 7.05911 14.0172 7.05817 14.0172C7.05722 14.0172 7.05628 14.0172 7.05534 14.0172C7.05439 14.0172 7.05345 14.0172 7.05251 14.0172C7.05157 14.0172 7.05062 14.0172 7.04968 14.0172C7.04874 14.0172 7.04779 14.0172 7.04685 14.0172C7.04591 14.0172 7.04497 14.0172 7.04402 14.0172C7.04308 14.0172 7.04214 14.0172 7.0412 14.0172C7.04025 14.0172 7.03931 14.0172 7.03837 14.0172C7.03743 14.0172 7.03648 14.0172 7.03554 14.0172C7.0346 14.0172 7.03366 14.0172 7.03272 14.0172C7.03177 14.0172 7.03083 14.0172 7.02989 14.0172C7.02895 14.0172 7.02801 14.0172 7.02706 14.0172C7.02612 14.0172 7.02518 14.0172 7.02424 14.0172C7.0233 14.0172 7.02235 14.0172 7.02141 14.0172C7.02047 14.0172 7.01953 14.0172 7.01859 14.0172C7.01765 14.0172 7.0167 14.0172 7.01576 14.0172C7.01482 14.0172 7.01388 14.0172 7.01294 14.0172C7.012 14.0172 7.01106 14.0172 7.01011 14.0172C7.00917 14.0172 7.00823 14.0172 7.00729 14.0172C7.00635 14.0172 7.00541 14.0172 7.00447 14.0172C7.00353 14.0172 7.00258 14.0172 7.00164 14.0172C7.0007 14.0172 6.99976 14.0172 6.99882 14.0172C6.99788 14.0172 6.99694 14.0172 6.996 14.0172C6.99506 14.0172 6.99412 14.0172 6.99318 14.0172C6.99224 14.0172 6.99129 14.0172 6.99035 14.0172C6.98941 14.0172 6.98847 14.0172 6.98753 14.0172C6.98659 14.0172 6.98565 14.0172 6.98471 14.0172C6.98377 14.0172 6.98283 14.0172 6.98189 14.0172C6.98095 14.0172 6.98001 14.0172 6.97907 14.0172C6.97813 14.0172 6.97719 14.0172 6.97625 14.0172C6.97531 14.0172 6.97437 14.0172 6.97343 14.0172C6.97249 14.0172 6.97155 14.0172 6.97061 14.0172C6.96967 14.0172 6.96873 14.0172 6.96779 14.0172C6.96685 14.0172 6.96591 14.0172 6.96497 14.0172C6.96403 14.0172 6.96309 14.0172 6.96215 14.0172C6.96121 14.0172 6.96027 14.0172 6.95933 14.0172C6.95839 14.0172 6.95746 14.0172 6.95652 14.0172C6.95558 14.0172 6.95464 14.0172 6.9537 14.0172C6.95276 14.0172 6.95182 14.0172 6.95088 14.0172C6.94994 14.0172 6.949 14.0172 6.94806 14.0172C6.94712 14.0172 6.94619 14.0172 6.94525 14.0172C6.94431 14.0172 6.94337 14.0172 6.94243 14.0172C6.94149 14.0172 6.94055 14.0172 6.93961 14.0172C6.93868 14.0172 6.93774 14.0172 6.9368 14.0172C6.93586 14.0172 6.93492 14.0172 6.93398 14.0172C6.93304 14.0172 6.93211 14.0172 6.93117 14.0172C6.93023 14.0172 6.92929 14.0172 6.92835 14.0172C6.92741 14.0172 6.92648 14.0172 6.92554 14.0172C6.9246 14.0172 6.92366 14.0172 6.92272 14.0172C6.92179 14.0172 6.92085 14.0172 6.91991 14.0172C6.91897 14.0172 6.91803 14.0172 6.9171 14.0172C6.91616 14.0172 6.91522 14.0172 6.91428 14.0172C6.91335 14.0172 6.91241 14.0172 6.91147 14.0172C6.91053 14.0172 6.9096 14.0172 6.90866 14.0172C6.90772 14.0172 6.90678 14.0172 6.90585 14.0172C6.90491 14.0172 6.90397 14.0172 6.90303 14.0172C6.9021 14.0172 6.90116 14.0172 6.90022 14.0172C6.89929 14.0172 6.89835 14.0172 6.89741 14.0172C6.89647 14.0172 6.89554 14.0172 6.8946 14.0172C6.89366 14.0172 6.89273 14.0172 6.89179 14.0172C6.89085 14.0172 6.88992 14.0172 6.88898 14.0172C6.88804 14.0172 6.88711 14.0172 6.88617 14.0172C6.88523 14.0172 6.8843 14.0172 6.88336 14.0172C6.88242 14.0172 6.88149 14.0172 6.88055 14.0172C6.87962 14.0172 6.87868 14.0172 6.87774 14.0172C6.87681 14.0172 6.87587 14.0172 6.87493 14.0172C6.874 14.0172 6.87306 14.0172 6.87213 14.0172C6.87119 14.0172 6.87025 14.0172 6.86932 14.0172C6.86838 14.0172 6.86745 14.0172 6.86651 14.0172C6.86557 14.0172 6.86464 14.0172 6.8637 14.0172C6.86277 14.0172 6.86183 14.0172 6.8609 14.0172C6.85996 14.0172 6.85903 14.0172 6.85809 14.0172C6.85715 14.0172 6.85622 14.0172 6.85528 14.0172C6.85435 14.0172 6.85341 14.0172 6.85248 14.0172C6.85154 14.0172 6.85061 14.0172 6.84967 14.0172C6.84874 14.0172 6.8478 14.0172 6.84687 14.0172C6.84593 14.0172 6.845 14.0172 6.84406 14.0172C6.84313 14.0172 6.84219 14.0172 6.84126 14.0172C6.84032 14.0172 6.83939 14.0172 6.83845 14.0172C6.83752 14.0172 6.83658 14.0172 6.83565 14.0172C6.83472 14.0172 6.83378 14.0172 6.83285 14.0172C6.83191 14.0172 6.83098 14.0172 6.83004 14.0172C6.82911 14.0172 6.82817 14.0172 6.82724 14.0172C6.82631 14.0172 6.82537 14.0172 6.82444 14.0172C6.8235 14.0172 6.82257 14.0172 6.82164 14.0172C6.8207 14.0172 6.81977 14.0172 6.81883 14.0172C6.8179 14.0172 6.81697 14.0172 6.81603 14.0172C6.8151 14.0172 6.81417 14.0172 6.81323 14.0172C6.8123 14.0172 6.81136 14.0172 6.81043 14.0172C6.8095 14.0172 6.80856 14.0172 6.80763 14.0172C6.8067 14.0172 6.80576 14.0172 6.80483 14.0172C6.8039 14.0172 6.80296 14.0172 6.80203 14.0172C6.8011 14.0172 6.80016 14.0172 6.79923 14.0172C6.7983 14.0172 6.79737 14.0172 6.79643 14.0172C6.7955 14.0172 6.79457 14.0172 6.79363 14.0172C6.7927 14.0172 6.79177 14.0172 6.79084 14.0172C6.7899 14.0172 6.78897 14.0172 6.78804 14.0172C6.7871 14.0172 6.78617 14.0172 6.78524 14.0172C6.78431 14.0172 6.78338 14.0172 6.78244 14.0172C6.78151 14.0172 6.78058 14.0172 6.77965 14.0172C6.77871 14.0172 6.77778 14.0172 6.77685 14.0172C6.77592 14.0172 6.77499 14.0172 6.77405 14.0172C6.77312 14.0172 6.77219 14.0172 6.77126 14.0172C6.77033 14.0172 6.76939 14.0172 6.76846 14.0172C6.76753 14.0172 6.7666 14.0172 6.76567 14.0172C6.76473 14.0172 6.7638 14.0172 6.76287 14.0172C6.76194 14.0172 6.76101 14.0172 6.76008 14.0172C6.75915 14.0172 6.75821 14.0172 6.75728 14.0172C6.75635 14.0172 6.75542 14.0172 6.75449 14.0172C6.75356 14.0172 6.75263 14.0172 6.7517 14.0172C6.75076 14.0172 6.74983 14.0172 6.7489 14.0172C6.74797 14.0172 6.74704 14.0172 6.74611 14.0172C6.74518 14.0172 6.74425 14.0172 6.74332 14.0172C6.74239 14.0172 6.74146 14.0172 6.74053 14.0172C6.7396 14.0172 6.73866 14.0172 6.73773 14.0172C6.7368 14.0172 6.73587 14.0172 6.73494 14.0172C6.73401 14.0172 6.73308 14.0172 6.73215 14.0172C6.73122 14.0172 6.73029 14.0172 6.72936 14.0172C6.72843 14.0172 6.7275 14.0172 6.72657 14.0172C6.72564 14.0172 6.72471 14.0172 6.72378 14.0172C6.72285 14.0172 6.72192 14.0172 6.72099 14.0172C6.72006 14.0172 6.71913 14.0172 6.7182 14.0172C6.71727 14.0172 6.71634 14.0172 6.71541 14.0172C6.71448 14.0172 6.71356 14.0172 6.71263 14.0172C6.7117 14.0172 6.71077 14.0172 6.70984 14.0172C6.70891 14.0172 6.70798 14.0172 6.70705 14.0172C6.70612 14.0172 6.70519 14.0172 6.70426 14.0172C6.70333 14.0172 6.7024 14.0172 6.70148 14.0172C6.70055 14.0172 6.69962 14.0172 6.69869 14.0172C6.69776 14.0172 6.69683 14.0172 6.6959 14.0172C6.69497 14.0172 6.69405 14.0172 6.69312 14.0172C6.69219 14.0172 6.69126 14.0172 6.69033 14.0172C6.6894 14.0172 6.68847 14.0172 6.68755 14.0172C6.68662 14.0172 6.68569 14.0172 6.68476 14.0172C6.68383 14.0172 6.68291 14.0172 6.68198 14.0172C6.68105 14.0172 6.68012 14.0172 6.67919 14.0172C6.67827 14.0172 6.67734 14.0172 6.67641 14.0172C6.67548 14.0172 6.67455 14.0172 6.67363 14.0172C6.6727 14.0172 6.67177 14.0172 6.67084 14.0172C6.66992 14.0172 6.66899 14.0172 6.66806 14.0172C6.66713 14.0172 6.66621 14.0172 6.66528 14.0172C6.66435 14.0172 6.66342 14.0172 6.6625 14.0172C6.66157 14.0172 6.66064 14.0172 6.65972 14.0172C6.65879 14.0172 6.65786 14.0172 6.65693 14.0172C6.65601 14.0172 6.65508 14.0172 6.65415 14.0172C6.65323 14.0172 6.6523 14.0172 6.65137 14.0172C6.65045 14.0172 6.64952 14.0172 6.64859 14.0172C6.64767 14.0172 6.64674 14.0172 6.64581 14.0172C6.64489 14.0172 6.64396 14.0172 6.64303 14.0172C6.64211 14.0172 6.64118 14.0172 6.64025 14.0172C6.63933 14.0172 6.6384 14.0172 6.63748 14.0172C6.63655 14.0172 6.63562 14.0172 6.6347 14.0172C6.63377 14.0172 6.63285 14.0172 6.63192 14.0172C6.63099 14.0172 6.63007 14.0172 6.62914 14.0172C6.62822 14.0172 6.62729 14.0172 6.62637 14.0172C6.62544 14.0172 6.62451 14.0172 6.62359 14.0172C6.62266 14.0172 6.62174 14.0172 6.62081 14.0172C6.61989 14.0172 6.61896 14.0172 6.61804 14.0172C6.61711 14.0172 6.61619 14.0172 6.61526 14.0172C6.61434 14.0172 6.61341 14.0172 6.61249 14.0172C6.61156 14.0172 6.61064 14.0172 6.60971 14.0172C6.60879 14.0172 6.60786 14.0172 6.60694 14.0172C6.60601 14.0172 6.60509 14.0172 6.60416 14.0172C6.60324 14.0172 6.60231 14.0172 6.60139 14.0172C6.60046 14.0172 6.59954 14.0172 6.59862 14.0172C6.59769 14.0172 6.59677 14.0172 6.59584 14.0172C6.59492 14.0172 6.59399 14.0172 6.59307 14.0172C6.59215 14.0172 6.59122 14.0172 6.5903 14.0172C6.58937 14.0172 6.58845 14.0172 6.58753 14.0172C6.5866 14.0172 6.58568 14.0172 6.58476 14.0172C6.58383 14.0172 6.58291 14.0172 6.58198 14.0172C6.58106 14.0172 6.58014 14.0172 6.57921 14.0172C6.57829 14.0172 6.57737 14.0172 6.57644 14.0172C6.57552 14.0172 6.5746 14.0172 6.57367 14.0172C6.57275 14.0172 6.57183 14.0172 6.5709 14.0172C6.56998 14.0172 6.56906 14.0172 6.56813 14.0172C6.56721 14.0172 6.56629 14.0172 6.56537 14.0172C6.56444 14.0172 6.56352 14.0172 6.5626 14.0172C6.56168 14.0172 6.56075 14.0172 6.55983 14.0172C6.55891 14.0172 6.55798 14.0172 6.55706 14.0172C6.55614 14.0172 6.55522 14.0172 6.5543 14.0172C6.55337 14.0172 6.55245 14.0172 6.55153 14.0172C6.55061 14.0172 6.54968 14.0172 6.54876 14.0172C6.54784 14.0172 6.54692 14.0172 6.546 14.0172C6.54507 14.0172 6.54415 14.0172 6.54323 14.0172C6.54231 14.0172 6.54139 14.0172 6.54046 14.0172C6.53954 14.0172 6.53862 14.0172 6.5377 14.0172C6.53678 14.0172 6.53586 14.0172 6.53494 14.0172C6.53401 14.0172 6.53309 14.0172 6.53217 14.0172C6.53125 14.0172 6.53033 14.0172 6.52941 14.0172C6.52849 14.0172 6.52757 14.0172 6.52664 14.0172C6.52572 14.0172 6.5248 14.0172 6.52388 14.0172C6.52296 14.0172 6.52204 14.0172 6.52112 14.0172C6.5202 14.0172 6.51928 14.0172 6.51836 14.0172C6.51744 14.0172 6.51652 14.0172 6.51559 14.0172C6.51467 14.0172 6.51375 14.0172 6.51283 14.0172C6.51191 14.0172 6.51099 14.0172 6.51007 14.0172C6.50915 14.0172 6.50823 14.0172 6.50731 14.0172C6.50639 14.0172 6.50547 14.0172 6.50455 14.0172C6.50363 14.0172 6.50271 14.0172 6.50179 14.0172C6.50087 14.0172 6.49995 14.0172 6.49903 14.0172C6.49811 14.0172 6.49719 14.0172 6.49627 14.0172C6.49535 14.0172 6.49443 14.0172 6.49351 14.0172C6.4926 14.0172 6.49168 14.0172 6.49076 14.0172C6.48984 14.0172 6.48892 14.0172 6.488 14.0172C6.48708 14.0172 6.48616 14.0172 6.48524 14.0172C6.48432 14.0172 6.4834 14.0172 6.48248 14.0172C6.48157 14.0172 6.48065 14.0172 6.47973 14.0172C6.47881 14.0172 6.47789 14.0172 6.47697 14.0172C6.47605 14.0172 6.47513 14.0172 6.47422 14.0172C6.4733 14.0172 6.47238 14.0172 6.47146 14.0172C6.47054 14.0172 6.46962 14.0172 6.4687 14.0172C6.46779 14.0172 6.46687 14.0172 6.46595 14.0172C6.46503 14.0172 6.46411 14.0172 6.4632 14.0172C6.46228 14.0172 6.46136 14.0172 6.46044 14.0172C6.45952 14.0172 6.45861 14.0172 6.45769 14.0172C6.45677 14.0172 6.45585 14.0172 6.45494 14.0172C6.45402 14.0172 6.4531 14.0172 6.45218 14.0172C6.45127 14.0172 6.45035 14.0172 6.44943 14.0172C6.44851 14.0172 6.4476 14.0172 6.44668 14.0172C6.44576 14.0172 6.44484 14.0172 6.44393 14.0172C6.44301 14.0172 6.44209 14.0172 6.44118 14.0172C6.44026 14.0172 6.43934 14.0172 6.43843 14.0172C6.43751 14.0172 6.43659 14.0172 6.43567 14.0172C6.43476 14.0172 6.43384 14.0172 6.43293 14.0172C6.43201 14.0172 6.43109 14.0172 6.43018 14.0172C6.42926 14.0172 6.42834 14.0172 6.42743 14.0172C6.42651 14.0172 6.42559 14.0172 6.42468 14.0172C6.42376 14.0172 6.42285 14.0172 6.42193 14.0172C6.42101 14.0172 6.4201 14.0172 6.41918 14.0172C6.41827 14.0172 6.41735 14.0172 6.41643 14.0172C6.41552 14.0172 6.4146 14.0172 6.41369 14.0172C6.41277 14.0172 6.41186 14.0172 6.41094 14.0172C6.41003 14.0172 6.40911 14.0172 6.40819 14.0172C6.40728 14.0172 6.40636 14.0172 6.40545 14.0172C6.40453 14.0172 6.40362 14.0172 6.4027 14.0172C6.40179 14.0172 6.40087 14.0172 6.39996 14.0172C6.39904 14.0172 6.39813 14.0172 6.39721 14.0172C6.3963 14.0172 6.39538 14.0172 6.39447 14.0172C6.39355 14.0172 6.39264 14.0172 6.39173 14.0172C6.39081 14.0172 6.3899 14.0172 6.38898 14.0172C6.38807 14.0172 6.38715 14.0172 6.38624 14.0172C6.38532 14.0172 6.38441 14.0172 6.3835 14.0172C6.38258 14.0172 6.38167 14.0172 6.38075 14.0172C6.37984 14.0172 6.37893 14.0172 6.37801 14.0172C6.3771 14.0172 6.37619 14.0172 6.37527 14.0172C6.37436 14.0172 6.37344 14.0172 6.37253 14.0172C6.37162 14.0172 6.3707 14.0172 6.36979 14.0172C6.36888 14.0172 6.36796 14.0172 6.36705 14.0172C6.36614 14.0172 6.36522 14.0172 6.36431 14.0172C6.3634 14.0172 6.36248 14.0172 6.36157 14.0172C6.36066 14.0172 6.35975 14.0172 6.35883 14.0172C6.35792 14.0172 6.35701 14.0172 6.35609 14.0172C6.35518 14.0172 6.35427 14.0172 6.35336 14.0172C6.35244 14.0172 6.35153 14.0172 6.35062 14.0172C6.34971 14.0172 6.34879 14.0172 6.34788 14.0172C6.34697 14.0172 6.34606 14.0172 6.34514 14.0172C6.34423 14.0172 6.34332 14.0172 6.34241 14.0172C6.3415 14.0172 6.34058 14.0172 6.33967 14.0172C6.33876 14.0172 6.33785 14.0172 6.33694 14.0172C6.33602 14.0172 6.33511 14.0172 6.3342 14.0172C6.33329 14.0172 6.33238 14.0172 6.33147 14.0172C6.33056 14.0172 6.32964 14.0172 6.32873 14.0172C6.32782 14.0172 6.32691 14.0172 6.326 14.0172C6.32509 14.0172 6.32418 14.0172 6.32327 14.0172C6.32235 14.0172 6.32144 14.0172 6.32053 14.0172C6.31962 14.0172 6.31871 14.0172 6.3178 14.0172C6.31689 14.0172 6.31598 14.0172 6.31507 14.0172C6.31416 14.0172 6.31325 14.0172 6.31234 14.0172C6.31143 14.0172 6.31051 14.0172 6.3096 14.0172C6.30869 14.0172 6.30778 14.0172 6.30687 14.0172C6.30596 14.0172 6.30505 14.0172 6.30414 14.0172C6.30323 14.0172 6.30232 14.0172 6.30141 14.0172C6.3005 14.0172 6.29959 14.0172 6.29868 14.0172C6.29777 14.0172 6.29686 14.0172 6.29595 14.0172C6.29504 14.0172 6.29414 14.0172 6.29323 14.0172C6.29232 14.0172 6.29141 14.0172 6.2905 14.0172C6.28959 14.0172 6.28868 14.0172 6.28777 14.0172C6.28686 14.0172 6.28595 14.0172 6.28504 14.0172C6.28413 14.0172 6.28322 14.0172 6.28231 14.0172C6.28141 14.0172 6.2805 14.0172 6.27959 14.0172C6.27868 14.0172 6.27777 14.0172 6.27686 14.0172C6.27595 14.0172 6.27504 14.0172 6.27414 14.0172C6.27323 14.0172 6.27232 14.0172 6.27141 14.0172C6.2705 14.0172 6.26959 14.0172 6.26869 14.0172C6.26778 14.0172 6.26687 14.0172 6.26596 14.0172C6.26505 14.0172 6.26415 14.0172 6.26324 14.0172C6.26233 14.0172 6.26142 14.0172 6.26051 14.0172C6.25961 14.0172 6.2587 14.0172 6.25779 14.0172C6.25688 14.0172 6.25598 14.0172 6.25507 14.0172C6.25416 14.0172 6.25325 14.0172 6.25235 14.0172C6.25144 14.0172 6.25053 14.0172 6.24962 14.0172C6.24872 14.0172 6.24781 14.0172 6.2469 14.0172C6.246 14.0172 6.24509 14.0172 6.24418 14.0172C6.24327 14.0172 6.24237 14.0172 6.24146 14.0172C6.24055 14.0172 6.23965 14.0172 6.23874 14.0172C6.23783 14.0172 6.23693 14.0172 6.23602 14.0172C6.23511 14.0172 6.23421 14.0172 6.2333 14.0172C6.2324 14.0172 6.23149 14.0172 6.23058 14.0172C6.22968 14.0172 6.22877 14.0172 6.22786 14.0172C6.22696 14.0172 6.22605 14.0172 6.22515 14.0172C6.22424 14.0172 6.22333 14.0172 6.22243 14.0172C6.22152 14.0172 6.22062 14.0172 6.21971 14.0172C6.21881 14.0172 6.2179 14.0172 6.21699 14.0172C6.21609 14.0172 6.21518 14.0172 6.21428 14.0172C6.21337 14.0172 6.21247 14.0172 6.21156 14.0172C6.21066 14.0172 6.20975 14.0172 6.20885 14.0172C6.20794 14.0172 6.20704 14.0172 6.20613 14.0172C6.20523 14.0172 6.20432 14.0172 6.20342 14.0172C6.20251 14.0172 6.20161 14.0172 6.2007 14.0172C6.1998 14.0172 6.19889 14.0172 6.19799 14.0172C6.19709 14.0172 6.19618 14.0172 6.19528 14.0172C6.19437 14.0172 6.19347 14.0172 6.19256 14.0172C6.19166 14.0172 6.19076 14.0172 6.18985 14.0172C6.18895 14.0172 6.18804 14.0172 6.18714 14.0172C6.18624 14.0172 6.18533 14.0172 6.18443 14.0172C6.18353 14.0172 6.18262 14.0172 6.18172 14.0172C6.18081 14.0172 6.17991 14.0172 6.17901 14.0172C6.1781 14.0172 6.1772 14.0172 6.1763 14.0172C6.17539 14.0172 6.17449 14.0172 6.17359 14.0172C6.17268 14.0172 6.17178 14.0172 6.17088 14.0172C6.16998 14.0172 6.16907 14.0172 6.16817 14.0172C6.16727 14.0172 6.16636 14.0172 6.16546 14.0172C6.16456 14.0172 6.16366 14.0172 6.16275 14.0172C6.16185 14.0172 6.16095 14.0172 6.16005 14.0172C6.15914 14.0172 6.15824 14.0172 6.15734 14.0172C6.15644 14.0172 6.15553 14.0172 6.15463 14.0172C6.15373 14.0172 6.15283 14.0172 6.15193 14.0172C6.15102 14.0172 6.15012 14.0172 6.14922 14.0172L6.14922 15.3172C6.15012 15.3172 6.15102 15.3172 6.15193 15.3172C6.15283 15.3172 6.15373 15.3172 6.15463 15.3172C6.15553 15.3172 6.15644 15.3172 6.15734 15.3172C6.15824 15.3172 6.15914 15.3172 6.16005 15.3172C6.16095 15.3172 6.16185 15.3172 6.16275 15.3172C6.16366 15.3172 6.16456 15.3172 6.16546 15.3172C6.16636 15.3172 6.16727 15.3172 6.16817 15.3172C6.16907 15.3172 6.16998 15.3172 6.17088 15.3172C6.17178 15.3172 6.17268 15.3172 6.17359 15.3172C6.17449 15.3172 6.17539 15.3172 6.1763 15.3172C6.1772 15.3172 6.1781 15.3172 6.17901 15.3172C6.17991 15.3172 6.18081 15.3172 6.18172 15.3172C6.18262 15.3172 6.18353 15.3172 6.18443 15.3172C6.18533 15.3172 6.18624 15.3172 6.18714 15.3172C6.18804 15.3172 6.18895 15.3172 6.18985 15.3172C6.19076 15.3172 6.19166 15.3172 6.19256 15.3172C6.19347 15.3172 6.19437 15.3172 6.19528 15.3172C6.19618 15.3172 6.19709 15.3172 6.19799 15.3172C6.19889 15.3172 6.1998 15.3172 6.2007 15.3172C6.20161 15.3172 6.20251 15.3172 6.20342 15.3172C6.20432 15.3172 6.20523 15.3172 6.20613 15.3172C6.20704 15.3172 6.20794 15.3172 6.20885 15.3172C6.20975 15.3172 6.21066 15.3172 6.21156 15.3172C6.21247 15.3172 6.21337 15.3172 6.21428 15.3172C6.21518 15.3172 6.21609 15.3172 6.21699 15.3172C6.2179 15.3172 6.21881 15.3172 6.21971 15.3172C6.22062 15.3172 6.22152 15.3172 6.22243 15.3172C6.22333 15.3172 6.22424 15.3172 6.22515 15.3172C6.22605 15.3172 6.22696 15.3172 6.22786 15.3172C6.22877 15.3172 6.22968 15.3172 6.23058 15.3172C6.23149 15.3172 6.2324 15.3172 6.2333 15.3172C6.23421 15.3172 6.23511 15.3172 6.23602 15.3172C6.23693 15.3172 6.23783 15.3172 6.23874 15.3172C6.23965 15.3172 6.24055 15.3172 6.24146 15.3172C6.24237 15.3172 6.24327 15.3172 6.24418 15.3172C6.24509 15.3172 6.246 15.3172 6.2469 15.3172C6.24781 15.3172 6.24872 15.3172 6.24962 15.3172C6.25053 15.3172 6.25144 15.3172 6.25235 15.3172C6.25325 15.3172 6.25416 15.3172 6.25507 15.3172C6.25598 15.3172 6.25688 15.3172 6.25779 15.3172C6.2587 15.3172 6.25961 15.3172 6.26051 15.3172C6.26142 15.3172 6.26233 15.3172 6.26324 15.3172C6.26415 15.3172 6.26505 15.3172 6.26596 15.3172C6.26687 15.3172 6.26778 15.3172 6.26869 15.3172C6.26959 15.3172 6.2705 15.3172 6.27141 15.3172C6.27232 15.3172 6.27323 15.3172 6.27414 15.3172C6.27504 15.3172 6.27595 15.3172 6.27686 15.3172C6.27777 15.3172 6.27868 15.3172 6.27959 15.3172C6.2805 15.3172 6.28141 15.3172 6.28231 15.3172C6.28322 15.3172 6.28413 15.3172 6.28504 15.3172C6.28595 15.3172 6.28686 15.3172 6.28777 15.3172C6.28868 15.3172 6.28959 15.3172 6.2905 15.3172C6.29141 15.3172 6.29232 15.3172 6.29323 15.3172C6.29414 15.3172 6.29504 15.3172 6.29595 15.3172C6.29686 15.3172 6.29777 15.3172 6.29868 15.3172C6.29959 15.3172 6.3005 15.3172 6.30141 15.3172C6.30232 15.3172 6.30323 15.3172 6.30414 15.3172C6.30505 15.3172 6.30596 15.3172 6.30687 15.3172C6.30778 15.3172 6.30869 15.3172 6.3096 15.3172C6.31051 15.3172 6.31143 15.3172 6.31234 15.3172C6.31325 15.3172 6.31416 15.3172 6.31507 15.3172C6.31598 15.3172 6.31689 15.3172 6.3178 15.3172C6.31871 15.3172 6.31962 15.3172 6.32053 15.3172C6.32144 15.3172 6.32235 15.3172 6.32327 15.3172C6.32418 15.3172 6.32509 15.3172 6.326 15.3172C6.32691 15.3172 6.32782 15.3172 6.32873 15.3172C6.32964 15.3172 6.33056 15.3172 6.33147 15.3172C6.33238 15.3172 6.33329 15.3172 6.3342 15.3172C6.33511 15.3172 6.33602 15.3172 6.33694 15.3172C6.33785 15.3172 6.33876 15.3172 6.33967 15.3172C6.34058 15.3172 6.3415 15.3172 6.34241 15.3172C6.34332 15.3172 6.34423 15.3172 6.34514 15.3172C6.34606 15.3172 6.34697 15.3172 6.34788 15.3172C6.34879 15.3172 6.34971 15.3172 6.35062 15.3172C6.35153 15.3172 6.35244 15.3172 6.35336 15.3172C6.35427 15.3172 6.35518 15.3172 6.35609 15.3172C6.35701 15.3172 6.35792 15.3172 6.35883 15.3172C6.35974 15.3172 6.36066 15.3172 6.36157 15.3172C6.36248 15.3172 6.3634 15.3172 6.36431 15.3172C6.36522 15.3172 6.36614 15.3172 6.36705 15.3172C6.36796 15.3172 6.36888 15.3172 6.36979 15.3172C6.3707 15.3172 6.37162 15.3172 6.37253 15.3172C6.37344 15.3172 6.37436 15.3172 6.37527 15.3172C6.37619 15.3172 6.3771 15.3172 6.37801 15.3172C6.37893 15.3172 6.37984 15.3172 6.38075 15.3172C6.38167 15.3172 6.38258 15.3172 6.3835 15.3172C6.38441 15.3172 6.38532 15.3172 6.38624 15.3172C6.38715 15.3172 6.38807 15.3172 6.38898 15.3172C6.3899 15.3172 6.39081 15.3172 6.39173 15.3172C6.39264 15.3172 6.39355 15.3172 6.39447 15.3172C6.39538 15.3172 6.3963 15.3172 6.39721 15.3172C6.39813 15.3172 6.39904 15.3172 6.39996 15.3172C6.40087 15.3172 6.40179 15.3172 6.4027 15.3172C6.40362 15.3172 6.40453 15.3172 6.40545 15.3172C6.40636 15.3172 6.40728 15.3172 6.40819 15.3172C6.40911 15.3172 6.41002 15.3172 6.41094 15.3172C6.41186 15.3172 6.41277 15.3172 6.41369 15.3172C6.4146 15.3172 6.41552 15.3172 6.41643 15.3172C6.41735 15.3172 6.41827 15.3172 6.41918 15.3172C6.4201 15.3172 6.42101 15.3172 6.42193 15.3172C6.42285 15.3172 6.42376 15.3172 6.42468 15.3172C6.42559 15.3172 6.42651 15.3172 6.42743 15.3172C6.42834 15.3172 6.42926 15.3172 6.43018 15.3172C6.43109 15.3172 6.43201 15.3172 6.43292 15.3172C6.43384 15.3172 6.43476 15.3172 6.43567 15.3172C6.43659 15.3172 6.43751 15.3172 6.43843 15.3172C6.43934 15.3172 6.44026 15.3172 6.44118 15.3172C6.44209 15.3172 6.44301 15.3172 6.44393 15.3172C6.44484 15.3172 6.44576 15.3172 6.44668 15.3172C6.4476 15.3172 6.44851 15.3172 6.44943 15.3172C6.45035 15.3172 6.45127 15.3172 6.45218 15.3172C6.4531 15.3172 6.45402 15.3172 6.45494 15.3172C6.45585 15.3172 6.45677 15.3172 6.45769 15.3172C6.45861 15.3172 6.45952 15.3172 6.46044 15.3172C6.46136 15.3172 6.46228 15.3172 6.4632 15.3172C6.46411 15.3172 6.46503 15.3172 6.46595 15.3172C6.46687 15.3172 6.46779 15.3172 6.4687 15.3172C6.46962 15.3172 6.47054 15.3172 6.47146 15.3172C6.47238 15.3172 6.4733 15.3172 6.47422 15.3172C6.47513 15.3172 6.47605 15.3172 6.47697 15.3172C6.47789 15.3172 6.47881 15.3172 6.47973 15.3172C6.48065 15.3172 6.48157 15.3172 6.48248 15.3172C6.4834 15.3172 6.48432 15.3172 6.48524 15.3172C6.48616 15.3172 6.48708 15.3172 6.488 15.3172C6.48892 15.3172 6.48984 15.3172 6.49076 15.3172C6.49168 15.3172 6.4926 15.3172 6.49351 15.3172C6.49443 15.3172 6.49535 15.3172 6.49627 15.3172C6.49719 15.3172 6.49811 15.3172 6.49903 15.3172C6.49995 15.3172 6.50087 15.3172 6.50179 15.3172C6.50271 15.3172 6.50363 15.3172 6.50455 15.3172C6.50547 15.3172 6.50639 15.3172 6.50731 15.3172C6.50823 15.3172 6.50915 15.3172 6.51007 15.3172C6.51099 15.3172 6.51191 15.3172 6.51283 15.3172C6.51375 15.3172 6.51467 15.3172 6.51559 15.3172C6.51652 15.3172 6.51744 15.3172 6.51836 15.3172C6.51928 15.3172 6.5202 15.3172 6.52112 15.3172C6.52204 15.3172 6.52296 15.3172 6.52388 15.3172C6.5248 15.3172 6.52572 15.3172 6.52664 15.3172C6.52757 15.3172 6.52849 15.3172 6.52941 15.3172C6.53033 15.3172 6.53125 15.3172 6.53217 15.3172C6.53309 15.3172 6.53401 15.3172 6.53494 15.3172C6.53586 15.3172 6.53678 15.3172 6.5377 15.3172C6.53862 15.3172 6.53954 15.3172 6.54046 15.3172C6.54139 15.3172 6.54231 15.3172 6.54323 15.3172C6.54415 15.3172 6.54507 15.3172 6.546 15.3172C6.54692 15.3172 6.54784 15.3172 6.54876 15.3172C6.54968 15.3172 6.55061 15.3172 6.55153 15.3172C6.55245 15.3172 6.55337 15.3172 6.5543 15.3172C6.55522 15.3172 6.55614 15.3172 6.55706 15.3172C6.55798 15.3172 6.55891 15.3172 6.55983 15.3172C6.56075 15.3172 6.56168 15.3172 6.5626 15.3172C6.56352 15.3172 6.56444 15.3172 6.56537 15.3172C6.56629 15.3172 6.56721 15.3172 6.56813 15.3172C6.56906 15.3172 6.56998 15.3172 6.5709 15.3172C6.57183 15.3172 6.57275 15.3172 6.57367 15.3172C6.5746 15.3172 6.57552 15.3172 6.57644 15.3172C6.57737 15.3172 6.57829 15.3172 6.57921 15.3172C6.58014 15.3172 6.58106 15.3172 6.58198 15.3172C6.58291 15.3172 6.58383 15.3172 6.58476 15.3172C6.58568 15.3172 6.5866 15.3172 6.58753 15.3172C6.58845 15.3172 6.58937 15.3172 6.5903 15.3172C6.59122 15.3172 6.59215 15.3172 6.59307 15.3172C6.59399 15.3172 6.59492 15.3172 6.59584 15.3172C6.59677 15.3172 6.59769 15.3172 6.59862 15.3172C6.59954 15.3172 6.60046 15.3172 6.60139 15.3172C6.60231 15.3172 6.60324 15.3172 6.60416 15.3172C6.60509 15.3172 6.60601 15.3172 6.60694 15.3172C6.60786 15.3172 6.60879 15.3172 6.60971 15.3172C6.61064 15.3172 6.61156 15.3172 6.61249 15.3172C6.61341 15.3172 6.61434 15.3172 6.61526 15.3172C6.61619 15.3172 6.61711 15.3172 6.61804 15.3172C6.61896 15.3172 6.61989 15.3172 6.62081 15.3172C6.62174 15.3172 6.62266 15.3172 6.62359 15.3172C6.62451 15.3172 6.62544 15.3172 6.62637 15.3172C6.62729 15.3172 6.62822 15.3172 6.62914 15.3172C6.63007 15.3172 6.63099 15.3172 6.63192 15.3172C6.63285 15.3172 6.63377 15.3172 6.6347 15.3172C6.63562 15.3172 6.63655 15.3172 6.63748 15.3172C6.6384 15.3172 6.63933 15.3172 6.64025 15.3172C6.64118 15.3172 6.64211 15.3172 6.64303 15.3172C6.64396 15.3172 6.64489 15.3172 6.64581 15.3172C6.64674 15.3172 6.64767 15.3172 6.64859 15.3172C6.64952 15.3172 6.65045 15.3172 6.65137 15.3172C6.6523 15.3172 6.65323 15.3172 6.65415 15.3172C6.65508 15.3172 6.65601 15.3172 6.65693 15.3172C6.65786 15.3172 6.65879 15.3172 6.65971 15.3172C6.66064 15.3172 6.66157 15.3172 6.6625 15.3172C6.66342 15.3172 6.66435 15.3172 6.66528 15.3172C6.66621 15.3172 6.66713 15.3172 6.66806 15.3172C6.66899 15.3172 6.66992 15.3172 6.67084 15.3172C6.67177 15.3172 6.6727 15.3172 6.67363 15.3172C6.67455 15.3172 6.67548 15.3172 6.67641 15.3172C6.67734 15.3172 6.67827 15.3172 6.67919 15.3172C6.68012 15.3172 6.68105 15.3172 6.68198 15.3172C6.68291 15.3172 6.68383 15.3172 6.68476 15.3172C6.68569 15.3172 6.68662 15.3172 6.68755 15.3172C6.68847 15.3172 6.6894 15.3172 6.69033 15.3172C6.69126 15.3172 6.69219 15.3172 6.69312 15.3172C6.69405 15.3172 6.69497 15.3172 6.6959 15.3172C6.69683 15.3172 6.69776 15.3172 6.69869 15.3172C6.69962 15.3172 6.70055 15.3172 6.70148 15.3172C6.7024 15.3172 6.70333 15.3172 6.70426 15.3172C6.70519 15.3172 6.70612 15.3172 6.70705 15.3172C6.70798 15.3172 6.70891 15.3172 6.70984 15.3172C6.71077 15.3172 6.7117 15.3172 6.71263 15.3172C6.71356 15.3172 6.71448 15.3172 6.71541 15.3172C6.71634 15.3172 6.71727 15.3172 6.7182 15.3172C6.71913 15.3172 6.72006 15.3172 6.72099 15.3172C6.72192 15.3172 6.72285 15.3172 6.72378 15.3172C6.72471 15.3172 6.72564 15.3172 6.72657 15.3172C6.7275 15.3172 6.72843 15.3172 6.72936 15.3172C6.73029 15.3172 6.73122 15.3172 6.73215 15.3172C6.73308 15.3172 6.73401 15.3172 6.73494 15.3172C6.73587 15.3172 6.7368 15.3172 6.73773 15.3172C6.73866 15.3172 6.7396 15.3172 6.74053 15.3172C6.74146 15.3172 6.74239 15.3172 6.74332 15.3172C6.74425 15.3172 6.74518 15.3172 6.74611 15.3172C6.74704 15.3172 6.74797 15.3172 6.7489 15.3172C6.74983 15.3172 6.75076 15.3172 6.7517 15.3172C6.75263 15.3172 6.75356 15.3172 6.75449 15.3172C6.75542 15.3172 6.75635 15.3172 6.75728 15.3172C6.75821 15.3172 6.75915 15.3172 6.76008 15.3172C6.76101 15.3172 6.76194 15.3172 6.76287 15.3172C6.7638 15.3172 6.76473 15.3172 6.76567 15.3172C6.7666 15.3172 6.76753 15.3172 6.76846 15.3172C6.76939 15.3172 6.77033 15.3172 6.77126 15.3172C6.77219 15.3172 6.77312 15.3172 6.77405 15.3172C6.77498 15.3172 6.77592 15.3172 6.77685 15.3172C6.77778 15.3172 6.77871 15.3172 6.77965 15.3172C6.78058 15.3172 6.78151 15.3172 6.78244 15.3172C6.78338 15.3172 6.78431 15.3172 6.78524 15.3172C6.78617 15.3172 6.7871 15.3172 6.78804 15.3172C6.78897 15.3172 6.7899 15.3172 6.79084 15.3172C6.79177 15.3172 6.7927 15.3172 6.79363 15.3172C6.79457 15.3172 6.7955 15.3172 6.79643 15.3172C6.79737 15.3172 6.7983 15.3172 6.79923 15.3172C6.80016 15.3172 6.8011 15.3172 6.80203 15.3172C6.80296 15.3172 6.8039 15.3172 6.80483 15.3172C6.80576 15.3172 6.8067 15.3172 6.80763 15.3172C6.80856 15.3172 6.8095 15.3172 6.81043 15.3172C6.81136 15.3172 6.8123 15.3172 6.81323 15.3172C6.81417 15.3172 6.8151 15.3172 6.81603 15.3172C6.81697 15.3172 6.8179 15.3172 6.81883 15.3172C6.81977 15.3172 6.8207 15.3172 6.82164 15.3172C6.82257 15.3172 6.8235 15.3172 6.82444 15.3172C6.82537 15.3172 6.82631 15.3172 6.82724 15.3172C6.82817 15.3172 6.82911 15.3172 6.83004 15.3172C6.83098 15.3172 6.83191 15.3172 6.83285 15.3172C6.83378 15.3172 6.83472 15.3172 6.83565 15.3172C6.83658 15.3172 6.83752 15.3172 6.83845 15.3172C6.83939 15.3172 6.84032 15.3172 6.84126 15.3172C6.84219 15.3172 6.84313 15.3172 6.84406 15.3172C6.845 15.3172 6.84593 15.3172 6.84687 15.3172C6.8478 15.3172 6.84874 15.3172 6.84967 15.3172C6.85061 15.3172 6.85154 15.3172 6.85248 15.3172C6.85341 15.3172 6.85435 15.3172 6.85528 15.3172C6.85622 15.3172 6.85715 15.3172 6.85809 15.3172C6.85903 15.3172 6.85996 15.3172 6.8609 15.3172C6.86183 15.3172 6.86277 15.3172 6.8637 15.3172C6.86464 15.3172 6.86557 15.3172 6.86651 15.3172C6.86745 15.3172 6.86838 15.3172 6.86932 15.3172C6.87025 15.3172 6.87119 15.3172 6.87213 15.3172C6.87306 15.3172 6.874 15.3172 6.87493 15.3172C6.87587 15.3172 6.87681 15.3172 6.87774 15.3172C6.87868 15.3172 6.87962 15.3172 6.88055 15.3172C6.88149 15.3172 6.88242 15.3172 6.88336 15.3172C6.8843 15.3172 6.88523 15.3172 6.88617 15.3172C6.88711 15.3172 6.88804 15.3172 6.88898 15.3172C6.88992 15.3172 6.89085 15.3172 6.89179 15.3172C6.89273 15.3172 6.89366 15.3172 6.8946 15.3172C6.89554 15.3172 6.89647 15.3172 6.89741 15.3172C6.89835 15.3172 6.89929 15.3172 6.90022 15.3172C6.90116 15.3172 6.9021 15.3172 6.90303 15.3172C6.90397 15.3172 6.90491 15.3172 6.90585 15.3172C6.90678 15.3172 6.90772 15.3172 6.90866 15.3172C6.9096 15.3172 6.91053 15.3172 6.91147 15.3172C6.91241 15.3172 6.91335 15.3172 6.91428 15.3172C6.91522 15.3172 6.91616 15.3172 6.9171 15.3172C6.91803 15.3172 6.91897 15.3172 6.91991 15.3172C6.92085 15.3172 6.92179 15.3172 6.92272 15.3172C6.92366 15.3172 6.9246 15.3172 6.92554 15.3172C6.92648 15.3172 6.92741 15.3172 6.92835 15.3172C6.92929 15.3172 6.93023 15.3172 6.93117 15.3172C6.93211 15.3172 6.93304 15.3172 6.93398 15.3172C6.93492 15.3172 6.93586 15.3172 6.9368 15.3172C6.93774 15.3172 6.93868 15.3172 6.93961 15.3172C6.94055 15.3172 6.94149 15.3172 6.94243 15.3172C6.94337 15.3172 6.94431 15.3172 6.94525 15.3172C6.94619 15.3172 6.94712 15.3172 6.94806 15.3172C6.949 15.3172 6.94994 15.3172 6.95088 15.3172C6.95182 15.3172 6.95276 15.3172 6.9537 15.3172C6.95464 15.3172 6.95558 15.3172 6.95652 15.3172C6.95746 15.3172 6.95839 15.3172 6.95933 15.3172C6.96027 15.3172 6.96121 15.3172 6.96215 15.3172C6.96309 15.3172 6.96403 15.3172 6.96497 15.3172C6.96591 15.3172 6.96685 15.3172 6.96779 15.3172C6.96873 15.3172 6.96967 15.3172 6.97061 15.3172C6.97155 15.3172 6.97249 15.3172 6.97343 15.3172C6.97437 15.3172 6.97531 15.3172 6.97625 15.3172C6.97719 15.3172 6.97813 15.3172 6.97907 15.3172C6.98001 15.3172 6.98095 15.3172 6.98189 15.3172C6.98283 15.3172 6.98377 15.3172 6.98471 15.3172C6.98565 15.3172 6.98659 15.3172 6.98753 15.3172C6.98847 15.3172 6.98941 15.3172 6.99035 15.3172C6.99129 15.3172 6.99224 15.3172 6.99318 15.3172C6.99412 15.3172 6.99506 15.3172 6.996 15.3172C6.99694 15.3172 6.99788 15.3172 6.99882 15.3172C6.99976 15.3172 7.0007 15.3172 7.00164 15.3172C7.00258 15.3172 7.00353 15.3172 7.00447 15.3172C7.00541 15.3172 7.00635 15.3172 7.00729 15.3172C7.00823 15.3172 7.00917 15.3172 7.01011 15.3172C7.01106 15.3172 7.012 15.3172 7.01294 15.3172C7.01388 15.3172 7.01482 15.3172 7.01576 15.3172C7.0167 15.3172 7.01765 15.3172 7.01859 15.3172C7.01953 15.3172 7.02047 15.3172 7.02141 15.3172C7.02235 15.3172 7.0233 15.3172 7.02424 15.3172C7.02518 15.3172 7.02612 15.3172 7.02706 15.3172C7.02801 15.3172 7.02895 15.3172 7.02989 15.3172C7.03083 15.3172 7.03177 15.3172 7.03272 15.3172C7.03366 15.3172 7.0346 15.3172 7.03554 15.3172C7.03648 15.3172 7.03743 15.3172 7.03837 15.3172C7.03931 15.3172 7.04025 15.3172 7.0412 15.3172C7.04214 15.3172 7.04308 15.3172 7.04402 15.3172C7.04497 15.3172 7.04591 15.3172 7.04685 15.3172C7.04779 15.3172 7.04874 15.3172 7.04968 15.3172C7.05062 15.3172 7.05157 15.3172 7.05251 15.3172C7.05345 15.3172 7.05439 15.3172 7.05534 15.3172C7.05628 15.3172 7.05722 15.3172 7.05817 15.3172C7.05911 15.3172 7.06005 15.3172 7.061 15.3172C7.06194 15.3172 7.06288 15.3172 7.06383 15.3172C7.06477 15.3172 7.06571 15.3172 7.06666 15.3172C7.0676 15.3172 7.06854 15.3172 7.06949 15.3172C7.07043 15.3172 7.07137 15.3172 7.07232 15.3172C7.07326 15.3172 7.0742 15.3172 7.07515 15.3172C7.07609 15.3172 7.07703 15.3172 7.07798 15.3172C7.07892 15.3172 7.07987 15.3172 7.08081 15.3172C7.08175 15.3172 7.0827 15.3172 7.08364 15.3172C7.08459 15.3172 7.08553 15.3172 7.08647 15.3172C7.08742 15.3172 7.08836 15.3172 7.08931 15.3172C7.09025 15.3172 7.09119 15.3172 7.09214 15.3172C7.09308 15.3172 7.09403 15.3172 7.09497 15.3172C7.09592 15.3172 7.09686 15.3172 7.09781 15.3172C7.09875 15.3172 7.09969 15.3172 7.10064 15.3172C7.10158 15.3172 7.10253 15.3172 7.10347 15.3172C7.10442 15.3172 7.10536 15.3172 7.10631 15.3172C7.10725 15.3172 7.1082 15.3172 7.10914 15.3172C7.11009 15.3172 7.11103 15.3172 7.11198 15.3172C7.11292 15.3172 7.11387 15.3172 7.11481 15.3172C7.11576 15.3172 7.1167 15.3172 7.11765 15.3172C7.11859 15.3172 7.11954 15.3172 7.12048 15.3172C7.12143 15.3172 7.12237 15.3172 7.12332 15.3172C7.12426 15.3172 7.12521 15.3172 7.12616 15.3172C7.1271 15.3172 7.12805 15.3172 7.12899 15.3172C7.12994 15.3172 7.13088 15.3172 7.13183 15.3172C7.13277 15.3172 7.13372 15.3172 7.13467 15.3172C7.13561 15.3172 7.13656 15.3172 7.1375 15.3172C7.13845 15.3172 7.1394 15.3172 7.14034 15.3172C7.14129 15.3172 7.14223 15.3172 7.14318 15.3172C7.14413 15.3172 7.14507 15.3172 7.14602 15.3172C7.14696 15.3172 7.14791 15.3172 7.14886 15.3172C7.1498 15.3172 7.15075 15.3172 7.1517 15.3172C7.15264 15.3172 7.15359 15.3172 7.15453 15.3172C7.15548 15.3172 7.15643 15.3172 7.15737 15.3172C7.15832 15.3172 7.15927 15.3172 7.16021 15.3172C7.16116 15.3172 7.16211 15.3172 7.16305 15.3172C7.164 15.3172 7.16495 15.3172 7.16589 15.3172C7.16684 15.3172 7.16779 15.3172 7.16874 15.3172C7.16968 15.3172 7.17063 15.3172 7.17158 15.3172C7.17252 15.3172 7.17347 15.3172 7.17442 15.3172C7.17537 15.3172 7.17631 15.3172 7.17726 15.3172C7.17821 15.3172 7.17915 15.3172 7.1801 15.3172C7.18105 15.3172 7.182 15.3172 7.18294 15.3172C7.18389 15.3172 7.18484 15.3172 7.18579 15.3172C7.18673 15.3172 7.18768 15.3172 7.18863 15.3172C7.18958 15.3172 7.19052 15.3172 7.19147 15.3172C7.19242 15.3172 7.19337 15.3172 7.19432 15.3172C7.19526 15.3172 7.19621 15.3172 7.19716 15.3172C7.19811 15.3172 7.19905 15.3172 7.2 15.3172C7.20095 15.3172 7.2019 15.3172 7.20285 15.3172C7.2038 15.3172 7.20474 15.3172 7.20569 15.3172C7.20664 15.3172 7.20759 15.3172 7.20854 15.3172C7.20948 15.3172 7.21043 15.3172 7.21138 15.3172C7.21233 15.3172 7.21328 15.3172 7.21423 15.3172C7.21518 15.3172 7.21612 15.3172 7.21707 15.3172C7.21802 15.3172 7.21897 15.3172 7.21992 15.3172C7.22087 15.3172 7.22182 15.3172 7.22276 15.3172C7.22371 15.3172 7.22466 15.3172 7.22561 15.3172C7.22656 15.3172 7.22751 15.3172 7.22846 15.3172C7.22941 15.3172 7.23036 15.3172 7.2313 15.3172C7.23225 15.3172 7.2332 15.3172 7.23415 15.3172C7.2351 15.3172 7.23605 15.3172 7.237 15.3172C7.23795 15.3172 7.2389 15.3172 7.23985 15.3172C7.2408 15.3172 7.24175 15.3172 7.2427 15.3172C7.24364 15.3172 7.24459 15.3172 7.24554 15.3172C7.24649 15.3172 7.24744 15.3172 7.24839 15.3172C7.24934 15.3172 7.25029 15.3172 7.25124 15.3172C7.25219 15.3172 7.25314 15.3172 7.25409 15.3172C7.25504 15.3172 7.25599 15.3172 7.25694 15.3172C7.25789 15.3172 7.25884 15.3172 7.25979 15.3172C7.26074 15.3172 7.26169 15.3172 7.26264 15.3172C7.26359 15.3172 7.26454 15.3172 7.26549 15.3172C7.26644 15.3172 7.26739 15.3172 7.26834 15.3172C7.26929 15.3172 7.27024 15.3172 7.27119 15.3172C7.27214 15.3172 7.27309 15.3172 7.27404 15.3172C7.27499 15.3172 7.27594 15.3172 7.27689 15.3172C7.27785 15.3172 7.2788 15.3172 7.27975 15.3172C7.2807 15.3172 7.28165 15.3172 7.2826 15.3172C7.28355 15.3172 7.2845 15.3172 7.28545 15.3172C7.2864 15.3172 7.28735 15.3172 7.2883 15.3172C7.28925 15.3172 7.2902 15.3172 7.29116 15.3172C7.29211 15.3172 7.29306 15.3172 7.29401 15.3172C7.29496 15.3172 7.29591 15.3172 7.29686 15.3172C7.29781 15.3172 7.29876 15.3172 7.29972 15.3172C7.30067 15.3172 7.30162 15.3172 7.30257 15.3172C7.30352 15.3172 7.30447 15.3172 7.30542 15.3172C7.30638 15.3172 7.30733 15.3172 7.30828 15.3172C7.30923 15.3172 7.31018 15.3172 7.31113 15.3172C7.31208 15.3172 7.31304 15.3172 7.31399 15.3172C7.31494 15.3172 7.31589 15.3172 7.31684 15.3172C7.3178 15.3172 7.31875 15.3172 7.3197 15.3172C7.32065 15.3172 7.3216 15.3172 7.32255 15.3172C7.32351 15.3172 7.32446 15.3172 7.32541 15.3172C7.32636 15.3172 7.32732 15.3172 7.32827 15.3172C7.32922 15.3172 7.33017 15.3172 7.33112 15.3172C7.33208 15.3172 7.33303 15.3172 7.33398 15.3172C7.33493 15.3172 7.33589 15.3172 7.33684 15.3172C7.33779 15.3172 7.33874 15.3172 7.3397 15.3172C7.34065 15.3172 7.3416 15.3172 7.34255 15.3172C7.34351 15.3172 7.34446 15.3172 7.34541 15.3172C7.34636 15.3172 7.34732 15.3172 7.34827 15.3172C7.34922 15.3172 7.35017 15.3172 7.35113 15.3172C7.35208 15.3172 7.35303 15.3172 7.35399 15.3172C7.35494 15.3172 7.35589 15.3172 7.35685 15.3172C7.3578 15.3172 7.35875 15.3172 7.3597 15.3172C7.36066 15.3172 7.36161 15.3172 7.36256 15.3172C7.36352 15.3172 7.36447 15.3172 7.36542 15.3172C7.36638 15.3172 7.36733 15.3172 7.36828 15.3172C7.36924 15.3172 7.37019 15.3172 7.37114 15.3172C7.3721 15.3172 7.37305 15.3172 7.374 15.3172C7.37496 15.3172 7.37591 15.3172 7.37687 15.3172C7.37782 15.3172 7.37877 15.3172 7.37973 15.3172C7.38068 15.3172 7.38163 15.3172 7.38259 15.3172C7.38354 15.3172 7.3845 15.3172 7.38545 15.3172C7.3864 15.3172 7.38736 15.3172 7.38831 15.3172C7.38926 15.3172 7.39022 15.3172 7.39117 15.3172C7.39213 15.3172 7.39308 15.3172 7.39404 15.3172C7.39499 15.3172 7.39594 15.3172 7.3969 15.3172C7.39785 15.3172 7.39881 15.3172 7.39976 15.3172C7.40071 15.3172 7.40167 15.3172 7.40262 15.3172C7.40358 15.3172 7.40453 15.3172 7.40549 15.3172C7.40644 15.3172 7.4074 15.3172 7.40835 15.3172C7.40931 15.3172 7.41026 15.3172 7.41121 15.3172C7.41217 15.3172 7.41312 15.3172 7.41408 15.3172C7.41503 15.3172 7.41599 15.3172 7.41694 15.3172C7.4179 15.3172 7.41885 15.3172 7.41981 15.3172C7.42076 15.3172 7.42172 15.3172 7.42267 15.3172C7.42363 15.3172 7.42458 15.3172 7.42554 15.3172C7.42649 15.3172 7.42745 15.3172 7.4284 15.3172C7.42936 15.3172 7.43031 15.3172 7.43127 15.3172C7.43222 15.3172 7.43318 15.3172 7.43413 15.3172C7.43509 15.3172 7.43605 15.3172 7.437 15.3172C7.43796 15.3172 7.43891 15.3172 7.43987 15.3172C7.44082 15.3172 7.44178 15.3172 7.44273 15.3172C7.44369 15.3172 7.44464 15.3172 7.4456 15.3172C7.44656 15.3172 7.44751 15.3172 7.44847 15.3172C7.44942 15.3172 7.45038 15.3172 7.45134 15.3172C7.45229 15.3172 7.45325 15.3172 7.4542 15.3172C7.45516 15.3172 7.45611 15.3172 7.45707 15.3172C7.45803 15.3172 7.45898 15.3172 7.45994 15.3172C7.46089 15.3172 7.46185 15.3172 7.46281 15.3172C7.46376 15.3172 7.46472 15.3172 7.46568 15.3172C7.46663 15.3172 7.46759 15.3172 7.46854 15.3172C7.4695 15.3172 7.47046 15.3172 7.47141 15.3172C7.47237 15.3172 7.47333 15.3172 7.47428 15.3172C7.47524 15.3172 7.4762 15.3172 7.47715 15.3172C7.47811 15.3172 7.47907 15.3172 7.48002 15.3172C7.48098 15.3172 7.48194 15.3172 7.48289 15.3172C7.48385 15.3172 7.48481 15.3172 7.48576 15.3172C7.48672 15.3172 7.48768 15.3172 7.48863 15.3172C7.48959 15.3172 7.49055 15.3172 7.4915 15.3172C7.49246 15.3172 7.49342 15.3172 7.49438 15.3172C7.49533 15.3172 7.49629 15.3172 7.49725 15.3172C7.4982 15.3172 7.49916 15.3172 7.50012 15.3172C7.50108 15.3172 7.50203 15.3172 7.50299 15.3172C7.50395 15.3172 7.5049 15.3172 7.50586 15.3172C7.50682 15.3172 7.50778 15.3172 7.50873 15.3172C7.50969 15.3172 7.51065 15.3172 7.51161 15.3172C7.51256 15.3172 7.51352 15.3172 7.51448 15.3172C7.51544 15.3172 7.51639 15.3172 7.51735 15.3172C7.51831 15.3172 7.51927 15.3172 7.52023 15.3172C7.52118 15.3172 7.52214 15.3172 7.5231 15.3172C7.52406 15.3172 7.52501 15.3172 7.52597 15.3172C7.52693 15.3172 7.52789 15.3172 7.52885 15.3172C7.5298 15.3172 7.53076 15.3172 7.53172 15.3172C7.53268 15.3172 7.53364 15.3172 7.53459 15.3172C7.53555 15.3172 7.53651 15.3172 7.53747 15.3172C7.53843 15.3172 7.53939 15.3172 7.54034 15.3172C7.5413 15.3172 7.54226 15.3172 7.54322 15.3172C7.54418 15.3172 7.54514 15.3172 7.54609 15.3172C7.54705 15.3172 7.54801 15.3172 7.54897 15.3172C7.54993 15.3172 7.55089 15.3172 7.55185 15.3172C7.5528 15.3172 7.55376 15.3172 7.55472 15.3172C7.55568 15.3172 7.55664 15.3172 7.5576 15.3172C7.55856 15.3172 7.55952 15.3172 7.56047 15.3172C7.56143 15.3172 7.56239 15.3172 7.56335 15.3172C7.56431 15.3172 7.56527 15.3172 7.56623 15.3172C7.56719 15.3172 7.56815 15.3172 7.56911 15.3172C7.57006 15.3172 7.57102 15.3172 7.57198 15.3172C7.57294 15.3172 7.5739 15.3172 7.57486 15.3172C7.57582 15.3172 7.57678 15.3172 7.57774 15.3172C7.5787 15.3172 7.57966 15.3172 7.58062 15.3172C7.58158 15.3172 7.58254 15.3172 7.58349 15.3172L7.58349 14.0172ZM6.31722 1.42832C6.72725 1.42832 7.15153 1.42832 7.5835 1.42832L7.5835 0.128321C7.15153 0.128321 6.72725 0.128321 6.31722 0.128321L6.31722 1.42832ZM2.06324 10.39C2.01496 9.6883 1.9835 8.96642 1.9835 8.27832L0.683496 8.27832C0.683496 9.00405 0.7166 9.75687 0.766312 10.4792L2.06324 10.39ZM1.9835 8.27832C1.9835 7.36884 2.0384 6.28934 2.11447 5.23293L0.81783 5.13956C0.740798 6.20934 0.683496 7.32392 0.683496 8.27832L1.9835 8.27832ZM6.31722 0.128321C3.46819 0.12832 1.02527 2.25879 0.81783 5.13956L2.11447 5.23293C2.27016 3.07089 4.11038 1.42832 6.31722 1.42832L6.31722 0.128321ZM6.14922 14.0172C3.99958 14.0172 2.20594 12.4635 2.06324 10.39L0.766312 10.4792C0.960732 13.3044 3.38862 15.3172 6.14922 15.3172L6.14922 14.0172Z" fill="#9F9F9F"/>
</svg>
