<svg width="14" height="16" viewBox="0 0 14 16" fill="none" xmlns="http://www.w3.org/2000/svg">
<path d="M10.5379 4.99419C7.68201 3.25666 9.02126 0.80425 9.07873 0.702313C9.16211 0.55725 9.16186 0.378781 9.07804 0.233969C8.99426 0.0891563 8.83964 0 8.67233 0C7.20223 0 6.05104 0.417688 5.25076 1.2415C3.88329 2.64916 3.94673 4.84 3.97379 5.77556C3.97679 5.87919 3.97939 5.96875 3.97939 6.03525C3.97939 6.72988 4.09082 7.37116 4.18917 7.93694C4.25254 8.30153 4.30726 8.61641 4.31698 8.86397C4.32739 9.12897 4.27901 9.18972 4.27695 9.19216C4.27004 9.20034 4.21254 9.23094 4.05707 9.23094C3.87976 9.23094 3.74904 9.173 3.63323 9.04316C3.18086 8.53591 3.14957 7.15084 3.23607 6.39731C3.25154 6.26444 3.20951 6.13131 3.12054 6.03144C3.03161 5.93156 2.90423 5.87444 2.77048 5.87444C1.55345 5.87444 0.644043 7.86469 0.644043 9.64419C0.644043 10.4807 0.812293 11.3002 1.14414 12.0798C1.46495 12.8335 1.92242 13.5138 2.50389 14.1016C3.71489 15.3258 5.31154 16 6.99979 16C8.69483 16 10.2911 15.3353 11.4945 14.1284C12.6948 12.9247 13.3559 11.3321 13.3559 9.64412C13.3558 7.49031 11.6706 5.68328 10.5379 4.99419ZM6.99979 15.0625C4.06282 15.0625 1.58157 12.5812 1.58157 9.64412C1.58157 8.92984 1.75201 8.18006 2.04917 7.58709C2.11857 7.44856 2.18979 7.32972 2.26007 7.22959C2.26792 8.00294 2.39042 9.05716 2.93276 9.66622C3.22532 9.99475 3.61411 10.1684 4.05711 10.1684C4.47095 10.1684 4.78632 10.043 4.99439 9.79559C5.38339 9.33316 5.26398 8.64616 5.11286 7.77637C5.02101 7.24794 4.91692 6.64897 4.91692 6.03522C4.91692 5.95512 4.91414 5.85934 4.91095 5.74837C4.88529 4.86219 4.83189 3.01816 5.92323 1.89475C6.41314 1.39041 7.09714 1.08347 7.96245 0.978437C7.86476 1.30281 7.78054 1.71459 7.77729 2.17566C7.77011 3.19153 8.15867 4.64406 10.0507 5.79513C10.9661 6.35203 12.4184 7.88944 12.4184 9.64416C12.4183 12.6318 9.98758 15.0625 6.99979 15.0625Z" fill="#9F9F9F"/>
</svg>
