<svg width="77" height="77" viewBox="0 0 77 77" fill="none" xmlns="http://www.w3.org/2000/svg">

<defs>
<linearGradient id="paint0_linear_414_5603" x1="23.7886" y1="77" x2="72.4701" y2="60.4944" gradientUnits="userSpaceOnUse">
<stop stop-color="#EA7000"/>
<stop offset="1" stop-color="#FFC123"/>
</linearGradient>
<linearGradient id="paint1_linear_414_5603" x1="26.2404" y1="70.5833" x2="66.8083" y2="56.8287" gradientUnits="userSpaceOnUse">
<stop stop-color="#EA7000"/>
<stop offset="1" stop-color="#FFC123"/>
</linearGradient>
<linearGradient id="paint2_linear_414_5603" x1="31.1347" y1="57.7762" x2="55.5095" y2="49.5113" gradientUnits="userSpaceOnUse">
<stop stop-color="#EA7000"/>
<stop offset="1" stop-color="#FFC123"/>
</linearGradient>
<linearGradient id="paint3_linear_414_5603" x1="13.9287" y1="39.7832" x2="16.5964" y2="37.0697" gradientUnits="userSpaceOnUse">
<stop stop-color="#EA7000"/>
<stop offset="1" stop-color="#FFC123"/>
</linearGradient>
<linearGradient id="paint4_linear_414_5603" x1="60.1289" y1="39.7832" x2="62.7966" y2="37.0697" gradientUnits="userSpaceOnUse">
<stop stop-color="#EA7000"/>
<stop offset="1" stop-color="#FFC123"/>
</linearGradient>
<linearGradient id="paint5_linear_414_5603" x1="38.0098" y1="19.2499" x2="39.7962" y2="19.048" gradientUnits="userSpaceOnUse">
<stop stop-color="#EA7000"/>
<stop offset="1" stop-color="#FFC123"/>
</linearGradient>
<linearGradient id="paint6_linear_414_5603" x1="38.0098" y1="65.45" x2="39.7962" y2="65.2481" gradientUnits="userSpaceOnUse">
<stop stop-color="#EA7000"/>
<stop offset="1" stop-color="#FFC123"/>
</linearGradient>
</defs>
<path d="M38.5 0C17.2373 0 0 17.2373 0 38.5C0 59.7627 17.2373 77 38.5 77C59.7627 77 77 59.7627 77 38.5C76.9762 17.2473 59.7527 0.0238119 38.5 0ZM38.5 74.4333C18.6547 74.4333 2.56667 58.3453 2.56667 38.5C2.56667 18.6547 18.6547 2.56667 38.5 2.56667C58.3453 2.56667 74.4333 18.6547 74.4333 38.5C74.4108 58.3359 58.3359 74.4108 38.5 74.4333Z" fill="url(#paint0_linear_414_5603)"/>
<path d="M38.4998 6.41663C20.7807 6.41663 6.4165 20.7808 6.4165 38.5C6.4165 56.2191 20.7807 70.5833 38.4998 70.5833C56.219 70.5833 70.5832 56.2191 70.5832 38.5C70.5631 20.789 56.2108 6.43668 38.4998 6.41663ZM38.4998 68.0166C22.1981 68.0166 8.98317 54.8017 8.98317 38.5C8.98317 22.1982 22.1981 8.98329 38.4998 8.98329C54.8016 8.98329 68.0165 22.1982 68.0165 38.5C67.9983 54.7942 54.794 67.9985 38.4998 68.0166Z" fill="url(#paint1_linear_414_5603)"/>
<path d="M57.4008 19.5991C56.9922 19.1918 56.3624 19.1072 55.8605 19.3923L32.9491 32.4682C32.9353 32.4776 32.9291 32.4926 32.9146 32.5007C32.768 32.6267 32.6308 32.7639 32.5042 32.9112C32.4961 32.925 32.481 32.9319 32.4722 32.9456L19.392 55.857C19.1057 56.3596 19.1909 56.9912 19.5994 57.4004C20.0086 57.809 20.6403 57.8942 21.1428 57.6078L44.0505 44.532C44.0642 44.5226 44.0705 44.5075 44.0849 44.4994C44.2315 44.3734 44.3688 44.2362 44.4954 44.089C44.5035 44.0752 44.5185 44.0683 44.5273 44.0545L57.6075 21.1469C57.8964 20.6437 57.8118 20.0089 57.4008 19.5991V19.5991ZM23.952 53.0479L33.8671 35.6834L41.3234 43.1327L23.952 53.0479ZM43.1324 41.3237L35.6894 33.8799L53.0538 23.9648L43.1324 41.3237Z" fill="url(#paint2_linear_414_5603)"/>
<path d="M17.9665 37.2166H12.8331C12.1244 37.2166 11.5498 37.7912 11.5498 38.4999C11.5498 39.2086 12.1244 39.7832 12.8331 39.7832H17.9665C18.6752 39.7832 19.2498 39.2086 19.2498 38.4999C19.2498 37.7912 18.6752 37.2166 17.9665 37.2166Z" fill="url(#paint3_linear_414_5603)"/>
<path d="M64.1667 37.2166H59.0333C58.3246 37.2166 57.75 37.7912 57.75 38.4999C57.75 39.2086 58.3246 39.7832 59.0333 39.7832H64.1667C64.8754 39.7832 65.45 39.2086 65.45 38.4999C65.45 37.7912 64.8754 37.2166 64.1667 37.2166Z" fill="url(#paint4_linear_414_5603)"/>
<path d="M38.5001 19.2499C39.2089 19.2499 39.7835 18.6753 39.7835 17.9666V12.8333C39.7835 12.1245 39.2089 11.5499 38.5001 11.5499C37.7914 11.5499 37.2168 12.1245 37.2168 12.8333V17.9666C37.2168 18.6753 37.7914 19.2499 38.5001 19.2499Z" fill="url(#paint5_linear_414_5603)"/>
<path d="M38.5001 57.75C37.7914 57.75 37.2168 58.3246 37.2168 59.0333V64.1667C37.2168 64.8754 37.7914 65.45 38.5001 65.45C39.2089 65.45 39.7835 64.8754 39.7835 64.1667V59.0333C39.7835 58.3246 39.2089 57.75 38.5001 57.75Z" fill="url(#paint6_linear_414_5603)"/>
</svg>
