<svg width="20" height="20" viewBox="0 0 20 20" fill="none" xmlns="http://www.w3.org/2000/svg">
<path d="M17.8801 8.46166C17.9826 9.01083 18.0384 9.58499 18.0384 10.1842C18.0384 14.8708 14.9018 18.2033 10.1643 18.2033C9.0869 18.2037 8.02002 17.9917 7.0246 17.5796C6.02918 17.1674 5.12472 16.5632 4.36291 15.8014C3.60109 15.0395 2.99685 14.1351 2.58471 13.1397C2.17257 12.1442 1.96061 11.0774 1.96094 10C1.96061 8.92263 2.17257 7.85575 2.58471 6.86033C2.99685 5.8649 3.60109 4.96045 4.36291 4.19863C5.12472 3.43681 6.02918 2.83257 7.0246 2.42043C8.02002 2.00829 9.0869 1.79633 10.1643 1.79666C12.3793 1.79666 14.2301 2.61166 15.6501 3.935L13.3376 6.2475V6.24166C12.4768 5.42166 11.3843 5.00083 10.1643 5.00083C7.4576 5.00083 5.2576 7.2875 5.2576 9.995C5.2576 12.7017 7.4576 14.9933 10.1643 14.9933C12.6201 14.9933 14.2918 13.5892 14.6351 11.6608H10.1643V8.46166H17.8809H17.8801Z" fill="#222222"/>
</svg>
