<svg width="14" height="16" viewBox="0 0 14 16" fill="none" xmlns="http://www.w3.org/2000/svg">
<path d="M13 6.72715C13 11.1817 7 14.9999 7 14.9999C7 14.9999 1 11.1817 1 6.72715C1 5.20818 1.63214 3.75143 2.75736 2.67736C3.88258 1.60329 5.4087 0.999878 7 0.999878C8.5913 0.999878 10.1174 1.60329 11.2426 2.67736C12.3679 3.75143 13 5.20818 13 6.72715Z" stroke="#9F9F9F" stroke-width="1.3" stroke-linecap="round" stroke-linejoin="round"/>
<path d="M7.00003 8.87439C8.1835 8.87439 9.14289 7.89501 9.14289 6.68689C9.14289 5.47877 8.1835 4.49939 7.00003 4.49939C5.81657 4.49939 4.85718 5.47877 4.85718 6.68689C4.85718 7.89501 5.81657 8.87439 7.00003 8.87439Z" stroke="#9F9F9F" stroke-width="1.3" stroke-linecap="round" stroke-linejoin="round"/>
</svg>
