<svg width="20" height="14" viewBox="0 0 20 14" fill="none" xmlns="http://www.w3.org/2000/svg">
<path d="M19.5833 10.3334H18.7289C18.5274 6.08697 15.2928 2.62916 11.1439 2.08365C11.2113 1.93021 11.25 1.76142 11.25 1.58337C11.25 0.894077 10.6893 0.333374 10 0.333374C9.3107 0.333374 8.75 0.894077 8.75 1.58337C8.75 1.76146 8.78871 1.93021 8.85609 2.08365C4.70719 2.62916 1.47258 6.08697 1.27109 10.3334H0.41668C0.186367 10.3334 0 10.5197 0 10.7501V11.1676C0 11.7946 0.183906 12.4021 0.532227 12.9245C0.841875 13.3892 1.36027 13.6667 1.91895 13.6667H18.0811C18.6393 13.6667 19.1581 13.3892 19.4682 12.9242C19.8161 12.4017 20 11.7946 20 11.1676V10.7501C20 10.5197 19.8136 10.3334 19.5833 10.3334ZM10 1.16673C10.2299 1.16673 10.4167 1.35349 10.4167 1.58341C10.4167 1.8133 10.2299 2.00009 10 2.00009C9.77008 2.00009 9.58332 1.81334 9.58332 1.58341C9.58332 1.35349 9.77012 1.16673 10 1.16673ZM10 2.83337C14.2246 2.83337 17.6768 6.16228 17.8955 10.3334H2.10445C2.3232 6.16228 5.77539 2.83337 10 2.83337ZM19.1667 11.1676C19.1667 11.6294 19.0312 12.0774 18.7744 12.4623C18.6194 12.6947 18.3602 12.8334 18.0811 12.8334H1.91895C1.6398 12.8334 1.3802 12.6947 1.2252 12.4619C0.968828 12.077 0.833359 11.6294 0.833359 11.1676V11.1668H19.1667V11.1676Z" fill="#2C3B6D"/>
</svg>
