<svg width="38" height="14" viewBox="0 0 38 14" fill="none" xmlns="http://www.w3.org/2000/svg">
<path d="M5.43839 10.8768C4.63473 10.8768 3.89957 10.7456 3.2329 10.483C2.56623 10.2114 1.99088 9.83576 1.50686 9.35596C1.03197 8.86712 0.662105 8.29227 0.397263 7.63143C0.132421 6.96153 0 6.22826 0 5.43162C0 4.63498 0.132421 3.90624 0.397263 3.24539C0.662105 2.58455 1.03197 2.01423 1.50686 1.53443C1.99088 1.04559 2.56623 0.669899 3.2329 0.407371C3.89957 0.13579 4.63473 0 5.43839 0C6.24205 0 6.97265 0.13579 7.63019 0.407371C8.29686 0.669899 8.8722 1.04559 9.35623 1.53443C9.84025 2.01423 10.2147 2.58455 10.4795 3.24539C10.7444 3.90624 10.8768 4.63498 10.8768 5.43162C10.8768 6.14678 10.7672 6.81216 10.548 7.42774C10.3288 8.04332 10.0229 8.58648 9.6302 9.05723L10.1508 9.57323C10.2877 9.71807 10.3562 9.8765 10.3562 10.0485C10.3654 10.2205 10.2969 10.3789 10.1508 10.5238C10.0046 10.6686 9.84025 10.741 9.6576 10.741C9.48408 10.741 9.32426 10.6686 9.17814 10.5238L8.61649 9.96702C8.17814 10.2567 7.68955 10.483 7.15073 10.646C6.62105 10.7999 6.05027 10.8768 5.43839 10.8768ZM5.43839 9.60039C5.85849 9.60039 6.25118 9.5506 6.61648 9.45102C6.98178 9.34239 7.31968 9.18849 7.63019 8.98933L6.31511 7.68574C6.16899 7.5409 6.09593 7.38248 6.09593 7.21047C6.09593 7.02942 6.16899 6.86647 6.31511 6.72163C6.46123 6.57679 6.62105 6.50436 6.79456 6.50436C6.97721 6.50436 7.1416 6.57679 7.28772 6.72163L8.64389 8.07953C8.91787 7.71743 9.12791 7.31458 9.27403 6.871C9.42928 6.41836 9.50691 5.93857 9.50691 5.43162C9.50691 4.64403 9.33339 3.93792 8.98636 3.31329C8.63933 2.6796 8.15987 2.1817 7.54799 1.81959C6.93612 1.45748 6.23292 1.27643 5.43839 1.27643C4.64387 1.27643 3.94067 1.45748 3.32879 1.81959C2.71691 2.1817 2.23746 2.6796 1.89042 3.31329C1.54339 3.93792 1.36987 4.64403 1.36987 5.43162C1.36987 6.2192 1.54339 6.92984 1.89042 7.56353C2.23746 8.18817 2.71691 8.68606 3.32879 9.05723C3.94067 9.41933 4.64387 9.60039 5.43839 9.60039Z" fill="#222222"/>
<path d="M13.6699 13.9185C13.469 13.9185 13.3001 13.8506 13.1631 13.7148C13.0352 13.5881 12.9713 13.4252 12.9713 13.226V7.03395C12.9804 6.31878 13.1494 5.67604 13.4781 5.10572C13.8069 4.5354 14.2544 4.08729 14.8206 3.7614C15.3868 3.42645 16.0261 3.25897 16.7384 3.25897C17.4599 3.25897 18.1037 3.42645 18.67 3.7614C19.2362 4.08729 19.6837 4.5354 20.0124 5.10572C20.3503 5.67604 20.5193 6.31878 20.5193 7.03395C20.5193 7.74911 20.364 8.39185 20.0535 8.96217C19.7522 9.52344 19.3366 9.97155 18.8069 10.3065C18.2773 10.6324 17.6791 10.7953 17.0124 10.7953C16.4736 10.7953 15.9759 10.6867 15.5193 10.4694C15.0718 10.2431 14.6882 9.93986 14.3686 9.55965V13.226C14.3686 13.4252 14.3046 13.5881 14.1768 13.7148C14.0489 13.8506 13.88 13.9185 13.6699 13.9185ZM16.7384 9.57323C17.2042 9.57323 17.6197 9.4646 17.985 9.24733C18.3503 9.02102 18.638 8.71775 18.848 8.33754C19.0672 7.94827 19.1768 7.51374 19.1768 7.03395C19.1768 6.5451 19.0672 6.11057 18.848 5.73036C18.638 5.34109 18.3503 5.03783 17.985 4.82056C17.6197 4.59424 17.2042 4.48109 16.7384 4.48109C16.2818 4.48109 15.8663 4.59424 15.4919 4.82056C15.1266 5.03783 14.8389 5.34109 14.6288 5.73036C14.4188 6.11057 14.3138 6.5451 14.3138 7.03395C14.3138 7.51374 14.4188 7.94827 14.6288 8.33754C14.8389 8.71775 15.1266 9.02102 15.4919 9.24733C15.8663 9.4646 16.2818 9.57323 16.7384 9.57323Z" fill="#222222"/>
<path d="M25.7265 10.7953C25.0598 10.7953 24.4617 10.6324 23.932 10.3065C23.4023 9.97155 22.9822 9.52344 22.6717 8.96217C22.3703 8.39185 22.2196 7.74911 22.2196 7.03395C22.2196 6.31878 22.384 5.67604 22.7128 5.10572C23.0507 4.5354 23.5028 4.08729 24.069 3.7614C24.6443 3.42645 25.2882 3.25897 26.0005 3.25897C26.7128 3.25897 27.3521 3.42645 27.9183 3.7614C28.4845 4.08729 28.932 4.5354 29.2608 5.10572C29.5987 5.67604 29.7676 6.31878 29.7676 7.03395V10.0621C29.7676 10.2612 29.6991 10.4287 29.5622 10.5645C29.4343 10.6912 29.2699 10.7546 29.069 10.7546C28.8681 10.7546 28.6991 10.6912 28.5621 10.5645C28.4343 10.4287 28.3704 10.2612 28.3704 10.0621V9.55965C28.0507 9.93986 27.6626 10.2431 27.206 10.4694C26.7585 10.6867 26.2653 10.7953 25.7265 10.7953ZM26.0005 9.57323C26.4662 9.57323 26.8818 9.4646 27.2471 9.24733C27.6124 9.02102 27.9 8.71775 28.1101 8.33754C28.3201 7.94827 28.4252 7.51374 28.4252 7.03395C28.4252 6.5451 28.3201 6.11057 28.1101 5.73036C27.9 5.34109 27.6124 5.03783 27.2471 4.82056C26.8818 4.59424 26.4662 4.48109 26.0005 4.48109C25.5439 4.48109 25.1283 4.59424 24.7539 4.82056C24.3886 5.03783 24.0964 5.34109 23.8772 5.73036C23.6671 6.11057 23.5621 6.5451 23.5621 7.03395C23.5621 7.51374 23.6671 7.94827 23.8772 8.33754C24.0964 8.71775 24.3886 9.02102 24.7539 9.24733C25.1283 9.4646 25.5439 9.57323 26.0005 9.57323Z" fill="#222222"/>
<path d="M33.1896 14C33.0983 14 32.9887 13.9728 32.8609 13.9185C32.459 13.7375 32.3494 13.4523 32.5321 13.063L33.902 10.0078L30.8198 4.2095C30.7284 4.0375 30.7147 3.87456 30.7787 3.72066C30.8517 3.55771 30.975 3.44003 31.1485 3.3676C31.322 3.29518 31.4864 3.29066 31.6417 3.35402C31.7969 3.40834 31.9157 3.5215 31.9979 3.6935L34.5047 8.63628L36.7102 3.70708C36.8929 3.32687 37.1805 3.21823 37.5732 3.38118C37.9842 3.55318 38.0983 3.83834 37.9157 4.23666L33.7239 13.579C33.6143 13.8597 33.4362 14 33.1896 14Z" fill="#222222"/>
</svg>
