<svg width="31" height="29" viewBox="0 0 31 29" fill="none" xmlns="http://www.w3.org/2000/svg">
<path d="M23.1689 28.2223C22.7761 28.2219 22.3923 28.1043 22.0667 27.8845L15.4356 23.4401C15.4029 23.4175 15.3642 23.4054 15.3245 23.4054C15.2848 23.4054 15.2461 23.4175 15.2134 23.4401L8.58228 27.8845C8.24929 28.1069 7.85655 28.2226 7.45621 28.2165C7.05587 28.2104 6.66686 28.0826 6.34086 27.8501C6.01485 27.6177 5.76726 27.2916 5.63098 26.9151C5.4947 26.5386 5.47616 26.1296 5.57783 25.7423L7.75561 18.0623C7.76591 18.0237 7.76466 17.9829 7.75202 17.945C7.73938 17.9071 7.71591 17.8737 7.6845 17.849L1.40894 12.9156C1.07858 12.6695 0.83352 12.3262 0.70813 11.9338C0.582741 11.5414 0.583308 11.1195 0.709753 10.7275C0.836197 10.3354 1.08218 9.99272 1.41321 9.7475C1.74423 9.50228 2.1437 9.3668 2.55561 9.36008L10.5556 9.05785C10.5949 9.05514 10.6327 9.04111 10.6642 9.01745C10.6957 8.9938 10.7198 8.96152 10.7334 8.92452L13.4889 1.43119C13.6278 1.05131 13.8801 0.723293 14.2116 0.49154C14.5431 0.259788 14.9378 0.135498 15.3423 0.135498C15.7468 0.135498 16.1415 0.259788 16.4729 0.49154C16.8044 0.723293 17.0567 1.05131 17.1956 1.43119L19.9512 8.92452C19.9648 8.96152 19.9888 8.9938 20.0204 9.01745C20.0519 9.04111 20.0896 9.05514 20.1289 9.05785L28.1289 9.36008C28.5409 9.3668 28.9403 9.50228 29.2714 9.7475C29.6024 9.99272 29.8484 10.3354 29.9748 10.7275C30.1012 11.1195 30.1018 11.5414 29.9764 11.9338C29.851 12.3262 29.606 12.6695 29.2756 12.9156L23.0001 17.849C22.9677 17.8729 22.9435 17.9062 22.9308 17.9444C22.918 17.9826 22.9174 18.0237 22.9289 18.0623L25.1067 25.7423C25.1832 26.0369 25.1907 26.3451 25.1289 26.6431C25.067 26.9411 24.9374 27.2208 24.75 27.4606C24.5626 27.7004 24.3225 27.8939 24.0484 28.026C23.7742 28.1581 23.4733 28.2252 23.1689 28.2223V28.2223ZM15.3289 21.6267C15.7226 21.6388 16.1035 21.7689 16.4223 22.0001L23.0534 26.4445C23.087 26.4701 23.128 26.484 23.1702 26.4844C23.2124 26.4847 23.2536 26.4714 23.2876 26.4464C23.3216 26.4214 23.3466 26.386 23.3588 26.3457C23.3711 26.3053 23.37 26.262 23.3556 26.2223L21.1778 18.5423C21.0707 18.1656 21.0786 17.7654 21.2005 17.3932C21.3225 17.0209 21.5529 16.6937 21.8623 16.4534L28.1378 11.5201C28.1721 11.496 28.1977 11.4616 28.2109 11.422C28.2242 11.3823 28.2243 11.3394 28.2114 11.2996C28.1985 11.2598 28.1731 11.2252 28.1391 11.2009C28.1051 11.1766 28.0641 11.1638 28.0223 11.1645L20.0223 10.8623C19.6306 10.847 19.2523 10.7154 18.9356 10.4843C18.619 10.2532 18.3784 9.93296 18.2445 9.56452L15.4889 2.07119C15.4765 2.0314 15.4517 1.99663 15.4181 1.97193C15.3846 1.94724 15.344 1.93392 15.3023 1.93392C15.2606 1.93392 15.22 1.94724 15.1864 1.97193C15.1528 1.99663 15.128 2.0314 15.1156 2.07119L12.3867 9.55563C12.2528 9.92407 12.0122 10.2443 11.6956 10.4754C11.379 10.7065 11.0007 10.8381 10.6089 10.8534L2.60894 11.1556C2.56712 11.155 2.52617 11.1677 2.49213 11.192C2.45809 11.2163 2.43274 11.2509 2.41981 11.2907C2.40688 11.3305 2.40705 11.3734 2.42029 11.4131C2.43354 11.4528 2.45916 11.4871 2.49339 11.5112L8.77783 16.4534C9.08623 16.6945 9.31597 17.0218 9.43784 17.3937C9.55972 17.7657 9.56823 18.1655 9.46228 18.5423L7.29339 26.2223C7.28045 26.2608 7.28038 26.3024 7.29322 26.3409C7.30605 26.3794 7.33107 26.4126 7.3645 26.4356C7.3967 26.4632 7.43768 26.4783 7.48006 26.4783C7.52243 26.4783 7.56341 26.4632 7.59561 26.4356L14.2267 21.9912C14.5508 21.7762 14.9312 21.6618 15.3201 21.6623L15.3289 21.6267Z" fill="#5C5C5C"/>
</svg>
