<svg width="16" height="16" viewBox="0 0 16 16" fill="none" xmlns="http://www.w3.org/2000/svg">
<path fill-rule="evenodd" clip-rule="evenodd" d="M7.65828 2.35902C4.73109 2.35902 2.35914 4.72908 2.35914 7.65145C2.35914 10.5738 4.73109 12.9439 7.65828 12.9439C9.11865 12.9439 10.4401 12.3546 11.3991 11.4C12.3623 10.4412 12.9574 9.11615 12.9574 7.65145C12.9574 4.72908 10.5855 2.35902 7.65828 2.35902ZM1.3335 7.65145C1.3335 4.16152 4.16576 1.33337 7.65828 1.33337C11.1508 1.33337 13.9831 4.16152 13.9831 7.65145C13.9831 9.21503 13.414 10.6465 12.4724 11.7494L14.5164 13.7911C14.7168 13.9912 14.717 14.3159 14.5168 14.5163C14.3167 14.7167 13.992 14.7169 13.7916 14.5167L11.7456 12.4731C10.6435 13.4062 9.21632 13.9695 7.65828 13.9695C4.16576 13.9695 1.3335 11.1414 1.3335 7.65145Z" fill="#9F9F9F"/>
</svg>
