<svg width="24" height="22" viewBox="0 0 24 22" fill="none" xmlns="http://www.w3.org/2000/svg">
<path d="M6.93767 16.7803C5.88913 16.7268 5.90887 15.252 6.93762 15.2007C9.85175 15.2109 17.538 15.2035 20.5448 15.2056C21.3672 15.2056 22.0708 14.6459 22.2557 13.8447L23.9631 6.45132C24.0609 6.028 23.9622 5.58987 23.6924 5.24933C23.4227 4.90879 23.0188 4.71073 22.5844 4.71073C21.3748 4.71073 11.1072 4.66425 5.84818 4.64328L5.01454 1.55009C4.81441 0.810905 4.13985 0.294678 3.37407 0.294678H0.703498C0.31498 0.294678 0 0.609658 0 0.998177C0 1.3867 0.31498 1.70168 0.703498 1.70168H3.37407C3.50591 1.70168 3.62199 1.79055 3.65627 1.91704L6.85789 13.7957C6.29495 13.8161 5.77061 14.0451 5.37299 14.4485C4.95521 14.8725 4.73084 15.4337 4.7412 16.0288C4.76193 17.219 5.74725 18.1873 6.93767 18.1873H7.96346C7.81099 18.5073 7.7254 18.8651 7.7254 19.2426C7.7254 20.6003 8.82998 21.7049 10.1877 21.7049C11.5455 21.7049 12.6501 20.6003 12.6501 19.2426C12.6501 18.8651 12.5644 18.5073 12.412 18.1873H16.8541C16.7018 18.5072 16.6162 18.8648 16.6162 19.2422C16.6162 20.5999 17.7208 21.7045 19.0785 21.7045C20.4363 21.7045 21.5409 20.5999 21.5409 19.2422C21.5409 18.8502 21.4484 18.4795 21.2847 18.1501C21.5631 18.0564 21.7638 17.7938 21.7638 17.4838C21.7638 17.0953 21.4488 16.7803 21.0603 16.7803H6.93767ZM11.243 19.2426C11.243 19.8246 10.7696 20.298 10.1877 20.298C9.60576 20.298 9.13235 19.8246 9.13235 19.2426C9.13235 18.661 9.60529 18.1878 10.1868 18.1873H10.1886C10.7701 18.1878 11.243 18.661 11.243 19.2426ZM19.0786 20.2976C18.4967 20.2976 18.0233 19.8241 18.0233 19.2422C18.0233 18.6661 18.4875 18.1966 19.0615 18.1873H19.0958C19.6698 18.1966 20.134 18.6661 20.134 19.2422C20.134 19.8241 19.6605 20.2976 19.0786 20.2976V20.2976ZM22.5895 6.12288C22.5937 6.12814 22.5931 6.13062 22.5922 6.13465L21.8728 9.24998H19.4367L19.8516 6.10661L22.5787 6.11758C22.5829 6.11768 22.5854 6.11768 22.5895 6.12288V6.12288ZM15.3367 13.7985V10.657H17.8319L17.4173 13.7985H15.3367ZM11.8482 13.7985L11.4302 10.657H13.9297V13.7985H11.8482ZM8.6096 13.7985H8.6074C8.43593 13.7985 8.28487 13.6828 8.24027 13.5181L7.46914 10.657H10.0108L10.4288 13.7985H8.6096ZM11.243 9.25003L10.8199 6.07026L13.9296 6.08278V9.25003H11.243ZM15.3367 9.25003V6.08846L18.4331 6.10093L18.0175 9.25003H15.3367ZM9.39972 6.06449L9.82356 9.24998H7.0899L6.22788 6.05169L9.39972 6.06449ZM20.5448 13.7985H18.8364L19.251 10.657H21.5478L20.8848 13.5281C20.848 13.6873 20.7082 13.7985 20.5448 13.7985Z" fill="white"/>
</svg>
