<svg width="14" height="14" viewBox="0 0 14 14" fill="none" xmlns="http://www.w3.org/2000/svg">
<path d="M13.2222 6.52544C13.3667 6.41777 13.4739 6.26756 13.5288 6.09588C13.5837 5.9242 13.5834 5.73965 13.5281 5.56812C13.4728 5.39659 13.3652 5.24667 13.2203 5.13938C13.0755 5.0321 12.9007 4.97283 12.7205 4.96989L9.22053 4.83767C9.20333 4.83648 9.18683 4.83034 9.17303 4.81999C9.15923 4.80964 9.14872 4.79552 9.14276 4.77933L7.93331 1.51267C7.87255 1.34647 7.76218 1.20296 7.61715 1.10157C7.47212 1.00018 7.29944 0.945801 7.12248 0.945801C6.94552 0.945801 6.77284 1.00018 6.62781 1.10157C6.48278 1.20296 6.37241 1.34647 6.31165 1.51267L5.10609 4.791C5.10013 4.80719 5.08962 4.82131 5.07582 4.83166C5.06202 4.84201 5.04552 4.84815 5.02831 4.84933L1.52831 4.98156C1.3481 4.9845 1.17333 5.04377 1.02851 5.15105C0.883685 5.25834 0.776069 5.40825 0.720749 5.57979C0.66543 5.75132 0.665182 5.93587 0.72004 6.10755C0.774897 6.27923 0.88211 6.42944 1.02665 6.53711L3.7722 8.69545C3.78594 8.70626 3.79621 8.72086 3.80174 8.73745C3.80727 8.75404 3.80782 8.77188 3.80331 8.78878L2.85831 12.1371C2.80934 12.3076 2.81409 12.4891 2.8719 12.6568C2.92971 12.8245 3.03779 12.9703 3.18142 13.0744C3.32505 13.1786 3.49727 13.2359 3.67465 13.2387C3.85203 13.2414 4.02595 13.1895 4.17276 13.0899L7.07387 11.1454C7.08816 11.1356 7.10511 11.1303 7.12248 11.1303C7.13985 11.1303 7.1568 11.1356 7.17109 11.1454L10.0722 13.0899C10.217 13.1929 10.3903 13.2482 10.568 13.2482C10.7457 13.2482 10.919 13.1929 11.0639 13.0899C11.2075 12.9868 11.3157 12.8416 11.3735 12.6745C11.4313 12.5074 11.4359 12.3264 11.3866 12.1566L10.4339 8.79656C10.4288 8.77969 10.4291 8.76167 10.4347 8.74497C10.4402 8.72827 10.4508 8.71369 10.465 8.70322L13.2222 6.52544Z" fill="#FFAA25"/>
</svg>
