<svg width="16" height="17" viewBox="0 0 16 17" fill="none" xmlns="http://www.w3.org/2000/svg">
<path d="M15.3334 14.4998V13.1664C15.3329 12.5756 15.1363 12.0016 14.7743 11.5346C14.4123 11.0677 13.9055 10.7341 13.3334 10.5864" stroke="#9F9F9F" stroke-width="1.33333" stroke-linecap="round" stroke-linejoin="round"/>
<path d="M11.3333 14.5V13.1667C11.3333 12.4594 11.0523 11.7811 10.5522 11.281C10.0521 10.781 9.37387 10.5 8.66663 10.5H3.33329C2.62605 10.5 1.94777 10.781 1.44767 11.281C0.947578 11.7811 0.666626 12.4594 0.666626 13.1667V14.5" stroke="#9F9F9F" stroke-width="1.33333" stroke-linecap="round" stroke-linejoin="round"/>
<path d="M10.6666 2.58643C11.2402 2.73329 11.7487 3.06689 12.1117 3.53463C12.4748 4.00237 12.6719 4.57765 12.6719 5.16976C12.6719 5.76187 12.4748 6.33715 12.1117 6.80488C11.7487 7.27262 11.2402 7.60622 10.6666 7.75309" stroke="#9F9F9F" stroke-width="1.33333" stroke-linecap="round" stroke-linejoin="round"/>
<path d="M6.00004 7.83333C7.4728 7.83333 8.66671 6.63943 8.66671 5.16667C8.66671 3.69391 7.4728 2.5 6.00004 2.5C4.52728 2.5 3.33337 3.69391 3.33337 5.16667C3.33337 6.63943 4.52728 7.83333 6.00004 7.83333Z" stroke="#9F9F9F" stroke-width="1.33333" stroke-linecap="round" stroke-linejoin="round"/>
</svg>
