<svg width="14" height="18" viewBox="0 0 14 18" fill="none" xmlns="http://www.w3.org/2000/svg">
<path fill-rule="evenodd" clip-rule="evenodd" d="M6.99992 1.9488C5.4559 1.9488 4.20422 3.19245 4.20422 4.72658C4.20422 6.2607 5.4559 7.50436 6.99992 7.50436C8.54394 7.50436 9.79562 6.2607 9.79562 4.72658C9.79562 3.19245 8.54394 1.9488 6.99992 1.9488ZM2.9139 4.72658C2.9139 2.4844 4.74327 0.666748 6.99992 0.666748C9.25656 0.666748 11.0859 2.4844 11.0859 4.72658C11.0859 6.96876 9.25656 8.78641 6.99992 8.78641C4.74327 8.78641 2.9139 6.96876 2.9139 4.72658Z" fill="#9F9F9F"/>
<path fill-rule="evenodd" clip-rule="evenodd" d="M4.8884 11.7779C3.08529 11.7779 1.62357 13.2302 1.62357 15.0218C1.62357 15.1158 1.64088 15.1822 1.65902 15.2209C1.67433 15.2535 1.68747 15.2628 1.69842 15.2687C2.19981 15.5398 3.6056 16.0514 6.99992 16.0514C10.3942 16.0514 11.8 15.5398 12.3014 15.2687C12.3124 15.2628 12.3255 15.2535 12.3408 15.2209C12.359 15.1822 12.3763 15.1158 12.3763 15.0218C12.3763 13.2302 10.9145 11.7779 9.11144 11.7779H4.8884ZM0.333252 15.0218C0.333252 12.5221 2.37266 10.4958 4.8884 10.4958H9.11144C11.6272 10.4958 13.6666 12.5221 13.6666 15.0218C13.6666 15.4806 13.4994 16.0806 12.9182 16.3949C12.1482 16.8111 10.4965 17.3334 6.99992 17.3334C3.50337 17.3334 1.85163 16.8111 1.08168 16.3949C0.500447 16.0806 0.333252 15.4806 0.333252 15.0218Z" fill="#9F9F9F"/>
</svg>
